<svg width="203" height="37" viewBox="0 0 203 37" fill="none" xmlns="http://www.w3.org/2000/svg">
<path d="M77.5707 30.9079L67.0801 6.59178H73.1591L82.3298 28.1289H78.7518L88.0614 6.59178H93.6541L83.1287 30.9079H77.5707Z" fill="white"/>
<path d="M108.154 30.9079V27.2605L107.806 26.4615V19.9309C107.806 18.773 107.447 17.8698 106.729 17.2214C106.035 16.573 104.958 16.2487 103.499 16.2487C102.503 16.2487 101.519 16.4109 100.546 16.7351C99.5967 17.0361 98.7862 17.453 98.1146 17.9856L96.1693 14.1992C97.1883 13.4813 98.4157 12.9255 99.8515 12.5319C101.287 12.1382 102.746 11.9413 104.228 11.9413C107.077 11.9413 109.288 12.6129 110.863 13.9561C112.438 15.2993 113.225 17.3951 113.225 20.2435V30.9079H108.154ZM102.457 31.1858C100.998 31.1858 99.7472 30.9426 98.7051 30.4563C97.663 29.9468 96.8641 29.2637 96.3083 28.4068C95.7525 27.5499 95.4746 26.5889 95.4746 25.5236C95.4746 24.412 95.7409 23.4394 96.2735 22.6057C96.8293 21.772 97.6978 21.1235 98.8788 20.6604C100.06 20.1741 101.6 19.9309 103.499 19.9309H108.466V23.092H104.089C102.816 23.092 101.936 23.3004 101.449 23.7173C100.986 24.1341 100.755 24.6552 100.755 25.2804C100.755 25.9752 101.021 26.531 101.554 26.9478C102.109 27.3415 102.862 27.5384 103.812 27.5384C104.715 27.5384 105.525 27.3299 106.243 26.9131C106.961 26.4731 107.482 25.8362 107.806 25.0025L108.64 27.5036C108.246 28.7079 107.528 29.6226 106.486 30.2479C105.444 30.8731 104.101 31.1858 102.457 31.1858Z" fill="white"/>
<path d="M128.794 31.1858C127.243 31.1858 125.853 30.8847 124.626 30.2826C123.421 29.6805 122.484 28.7658 121.812 27.5384C121.14 26.2878 120.805 24.7015 120.805 22.7794V12.2192H126.224V21.9804C126.224 23.532 126.548 24.6783 127.196 25.4194C127.868 26.1373 128.806 26.4962 130.01 26.4962C130.844 26.4962 131.585 26.3226 132.233 25.9752C132.882 25.6047 133.391 25.0489 133.762 24.3078C134.132 23.5436 134.317 22.5941 134.317 21.4593V12.2192H139.736V30.9079H134.595V25.7668L135.533 27.2605C134.908 28.5573 133.982 29.5416 132.754 30.2131C131.55 30.8616 130.23 31.1858 128.794 31.1858Z" fill="white"/>
<path d="M147.536 30.9079V5.13281H152.955V30.9079H147.536Z" fill="white"/>
<path d="M169.762 31.1858C167.562 31.1858 165.848 30.63 164.621 29.5184C163.394 28.3836 162.78 26.7047 162.78 24.4815V8.08548H168.199V24.412C168.199 25.1994 168.407 25.8131 168.824 26.2531C169.241 26.6699 169.808 26.8784 170.526 26.8784C171.383 26.8784 172.113 26.6468 172.715 26.1836L174.174 30.0047C173.618 30.3984 172.946 30.6995 172.159 30.9079C171.395 31.0932 170.596 31.1858 169.762 31.1858ZM159.897 16.8045V12.6361H172.854V16.8045H159.897Z" fill="white"/>
<path d="M177.598 30.9079L188.054 16.4919V20.5909L178.049 6.59178H184.441L191.354 16.353L188.679 16.3877L195.488 6.59178H201.601L191.666 20.3477V16.3182L202.192 30.9079H195.696L188.54 20.5909H191.111L184.059 30.9079H177.598Z" fill="white"/>
<path d="M0 7.12114C0 3.18824 3.18825 0 7.12115 0C11.054 0 14.2423 3.18824 14.2423 7.12114V29.0056C14.2423 32.9385 11.054 36.1268 7.12115 36.1268C3.18825 36.1268 0 32.9385 0 29.0056V7.12114Z" fill="url(#paint0_linear_1383_1779)"/>
<rect x="43.0742" width="14.2423" height="36.1268" rx="7.12115" fill="url(#paint1_linear_1383_1779)"/>
<circle cx="28.6543" cy="18.2422" r="7.12115" fill="url(#paint2_linear_1383_1779)"/>
<defs>
<linearGradient id="paint0_linear_1383_1779" x1="-5.68453e-07" y1="32.8152" x2="14.2546" y2="4.32132" gradientUnits="userSpaceOnUse">
<stop stop-color="#A7F6FA"/>
<stop offset="1" stop-color="#00B5E9"/>
</linearGradient>
<linearGradient id="paint1_linear_1383_1779" x1="56.2132" y1="4.31514" x2="43.0626" y2="31.9065" gradientUnits="userSpaceOnUse">
<stop stop-color="#E667DB"/>
<stop offset="0.9999" stop-color="#FED9FD"/>
</linearGradient>
<linearGradient id="paint2_linear_1383_1779" x1="32.544" y1="12.2442" x2="25.0613" y2="24.0365" gradientUnits="userSpaceOnUse">
<stop stop-color="#F288EA"/>
<stop offset="0.305555" stop-color="#FEE1FD"/>
<stop offset="0.683183" stop-color="#C1F0ED"/>
<stop offset="1" stop-color="#51D7FE"/>
</linearGradient>
</defs>
</svg>
