<svg width="428" height="421" viewBox="0 0 428 421" fill="none" xmlns="http://www.w3.org/2000/svg">
<g opacity="0.2">
<mask id="mask0_1383_1673" style="mask-type:luminance" maskUnits="userSpaceOnUse" x="-156" y="193" width="1404" height="890">
<path d="M-154.669 193.552C-152.176 196.41 -149.597 199.257 -146.966 202.052C-79.8991 273.21 30.9347 322.777 147.516 365.678C190.291 381.412 228.277 394.897 262.723 407.112C484.086 485.642 559.49 512.376 760.562 732.301C766.212 738.484 771.84 744.657 777.469 750.83C903.699 889.26 1029.23 1026.88 1247.81 1081.4L1247.2 1082.6C1028.51 1027.98 902.879 890.247 776.534 751.679C770.905 745.506 765.255 739.323 759.627 733.15C558.775 513.469 483.445 486.747 262.303 408.302C227.72 396.044 189.597 382.516 147.075 366.858C30.3357 323.903 -80.6664 274.25 -147.901 202.901C-150.427 200.212 -152.891 197.503 -155.301 194.741L-154.669 193.552Z" fill="white"/>
</mask>
<g mask="url(#mask0_1383_1673)">
<path d="M1336.31 907.315L-136.785 158.371L-248.748 378.59L1224.35 1127.53L1336.31 907.315Z" fill="#DDF247"/>
</g>
<mask id="mask1_1383_1673" style="mask-type:luminance" maskUnits="userSpaceOnUse" x="-153" y="188" width="1409" height="880">
<path d="M-152.281 188.839C-84.6941 256.473 22.8357 304.309 135.783 345.865C178.558 361.599 216.544 375.084 250.99 387.299C472.354 465.829 547.757 492.563 748.829 712.487C754.479 718.671 760.107 724.844 765.736 731.017C895.665 873.526 1024.84 1015.18 1255.55 1066.22L1254.94 1067.42C1024.13 1016.27 894.846 874.513 764.79 731.887C759.161 725.714 753.512 719.531 747.883 713.358C547.031 493.677 471.702 466.955 250.56 388.51C215.976 376.252 177.853 362.724 135.331 347.066C22.4051 305.52 -85.1353 257.706 -152.891 190.039L-152.281 188.839Z" fill="white"/>
</mask>
<g mask="url(#mask1_1383_1673)">
<path d="M1341.91 896.295L-131.188 147.352L-244.916 371.044L1228.18 1119.99L1341.91 896.295Z" fill="#DDF247"/>
</g>
<mask id="mask2_1383_1673" style="mask-type:luminance" maskUnits="userSpaceOnUse" x="-150" y="182" width="1414" height="870">
<path d="M-149.263 182.929C-81.3636 243.332 19.0008 287.391 124.048 326.044C166.823 341.778 204.809 355.263 239.255 367.478C460.619 446.008 536.022 472.742 737.094 692.666C742.744 698.85 748.372 705.023 754.001 711.196C887.589 857.711 1020.4 1003.3 1263.55 1050.44L1262.93 1051.67C1019.65 1004.41 886.769 858.698 753.066 712.045C747.438 705.872 741.788 699.689 736.159 693.516C535.307 473.835 459.978 447.113 238.836 368.668C204.252 356.41 166.129 342.882 123.607 327.224C18.5599 288.571 -81.8255 244.501 -149.852 184.087L-149.263 182.929Z" fill="white"/>
</mask>
<g mask="url(#mask2_1383_1673)">
<path d="M1347.51 885.311L-125.592 136.367L-241.043 363.448L1232.05 1112.39L1347.51 885.311Z" fill="#DDF247"/>
</g>
<mask id="mask3_1383_1673" style="mask-type:luminance" maskUnits="userSpaceOnUse" x="-147" y="175" width="1419" height="861">
<path d="M-145.729 175.965C-78.5139 229.847 14.8842 270.365 112.326 306.21C155.102 321.944 193.087 335.429 227.534 347.644C448.897 426.175 524.321 452.919 725.373 672.833C731.022 679.016 736.651 685.189 742.28 691.362C879.494 841.84 1015.86 991.331 1271.82 1034.21L1271.2 1035.43C1015.14 992.424 878.653 842.817 741.345 692.212C735.716 686.039 730.066 679.855 724.438 673.682C523.585 454.002 448.256 427.279 227.114 348.835C192.531 336.576 154.408 323.049 111.886 307.39C14.4433 271.544 -78.9758 231.016 -146.307 177.101L-145.729 175.965Z" fill="white"/>
</mask>
<g mask="url(#mask3_1383_1673)">
<path d="M1353.1 874.288L-119.992 125.344L-237.134 355.751L1235.96 1104.69L1353.1 874.288Z" fill="#DDF247"/>
</g>
<mask id="mask4_1383_1673" style="mask-type:luminance" maskUnits="userSpaceOnUse" x="-143" y="168" width="1424" height="851">
<path d="M-141.76 168.145C-76.0994 216.124 10.5214 253.249 100.58 286.374C143.355 302.108 181.341 315.592 215.787 327.808C437.151 406.338 512.575 433.082 713.626 652.996C719.276 659.18 724.905 665.353 730.533 671.526C871.322 825.914 1011.23 979.272 1280.29 1017.49L1279.67 1018.71C1010.49 980.354 870.481 826.89 729.598 672.375C723.969 666.202 718.32 660.018 712.691 653.845C511.839 434.165 436.51 407.443 215.368 328.998C180.784 316.74 142.661 303.212 100.139 287.553C10.0594 254.418 -76.5613 217.293 -142.338 169.281L-141.76 168.145Z" fill="white"/>
</mask>
<g mask="url(#mask4_1383_1673)">
<path d="M1358.7 863.268L-114.396 114.324L-233.219 348.036L1239.88 1096.98L1358.7 863.268Z" fill="#DDF247"/>
</g>
<mask id="mask5_1383_1673" style="mask-type:luminance" maskUnits="userSpaceOnUse" x="-138" y="159" width="1428" height="843">
<path d="M-137.406 159.609C-73.9899 202.208 5.96876 236.079 88.854 266.59C131.629 282.324 169.615 295.809 204.062 308.024C425.425 386.554 500.828 413.288 701.9 633.212C707.55 639.396 713.179 645.569 718.807 651.742C863.107 810.008 1006.49 967.169 1289.02 1000.35L1288.4 1001.57C1005.78 968.242 862.277 810.963 717.862 652.559C712.233 646.386 706.584 640.203 700.955 634.03C500.103 414.349 424.774 387.627 203.631 309.182C169.048 296.924 130.925 283.396 88.4028 267.738C5.48575 237.237 -74.494 203.356 -137.995 160.714L-137.406 159.609Z" fill="white"/>
</mask>
<g mask="url(#mask5_1383_1673)">
<path d="M1364.3 852.28L-108.799 103.336L-229.291 340.331L1243.81 1089.28L1364.3 852.28Z" fill="#DDF247"/>
</g>
<mask id="mask6_1383_1673" style="mask-type:luminance" maskUnits="userSpaceOnUse" x="-134" y="150" width="1432" height="834">
<path d="M-132.717 150.369C-72.2027 188.049 1.24092 218.793 77.1217 246.723C119.897 262.457 157.883 275.942 192.329 288.157C413.693 366.688 489.117 393.431 690.168 613.346C695.818 619.529 701.446 625.702 707.075 631.875C854.865 793.955 1001.68 954.878 1297.99 982.69L1297.36 983.932C1000.96 955.993 854.024 794.932 706.129 632.745C700.501 626.572 694.851 620.389 689.222 614.216C488.381 394.514 413.052 367.792 191.909 289.347C157.326 277.089 119.203 263.561 76.6808 247.903C0.76826 219.983 -72.7068 189.197 -133.284 151.485L-132.717 150.369Z" fill="white"/>
</mask>
<g mask="url(#mask6_1383_1673)">
<path d="M1369.91 841.245L-103.191 92.3008L-225.321 332.517L1247.78 1081.46L1369.91 841.245Z" fill="#DDF247"/>
</g>
<mask id="mask7_1383_1673" style="mask-type:luminance" maskUnits="userSpaceOnUse" x="-129" y="140" width="1437" height="826">
<path d="M-127.757 140.64C-70.6443 173.809 -3.64267 201.543 65.3916 226.945C108.167 242.679 146.153 256.164 180.599 268.379C401.973 346.889 477.366 373.643 678.438 593.568C684.087 599.752 689.716 605.925 695.345 612.098C846.573 777.939 996.785 942.601 1307.21 964.635L1306.58 965.877C996.091 943.706 845.753 778.926 694.41 612.947C688.781 606.774 683.131 600.59 677.503 594.417C476.651 374.737 401.321 348.014 180.179 269.57C145.596 257.312 107.473 243.784 64.9507 228.125C-4.10465 202.712 -71.1484 174.957 -128.324 141.755L-127.757 140.64Z" fill="white"/>
</mask>
<g mask="url(#mask7_1383_1673)">
<path d="M1375.5 830.268L-97.6016 81.3242L-221.357 324.74L1251.74 1073.68L1375.5 830.268Z" fill="#DDF247"/>
</g>
<mask id="mask8_1383_1673" style="mask-type:luminance" maskUnits="userSpaceOnUse" x="-124" y="130" width="1441" height="818">
<path d="M-122.521 130.338C-69.3078 159.353 -8.64325 184.182 53.6498 207.111C96.4249 222.845 134.411 236.33 168.857 248.545C390.221 327.076 465.645 353.82 666.696 573.734C672.346 579.918 677.974 586.091 683.603 592.264C838.227 761.845 991.783 930.194 1316.62 946.072L1315.98 947.335C991.068 931.287 837.408 762.832 682.657 593.134C677.029 586.961 671.379 580.777 665.75 574.604C464.909 354.903 389.58 328.18 168.437 249.736C133.854 237.478 95.7311 223.95 53.2088 208.291C-9.13695 185.362 -69.8226 160.522 -123.099 131.475L-122.521 130.338Z" fill="white"/>
</mask>
<g mask="url(#mask8_1383_1673)">
<path d="M1381.1 819.252L-92 70.3086L-217.372 316.902L1255.73 1065.85L1381.1 819.252Z" fill="#DDF247"/>
</g>
<mask id="mask9_1383_1673" style="mask-type:luminance" maskUnits="userSpaceOnUse" x="-118" y="119" width="1445" height="810">
<path d="M-117.081 119.614C-68.1605 144.777 -13.781 166.808 41.9184 187.285C84.6936 203.02 122.679 216.504 157.126 228.719C378.489 307.25 453.892 333.983 654.965 553.908C660.614 560.092 666.243 566.265 671.872 572.438C829.839 745.706 986.718 917.678 1326.3 927.064L1325.65 928.327C986.035 918.761 829.03 746.672 670.937 573.287C665.308 567.114 659.658 560.93 654.03 554.757C453.178 335.077 377.848 308.355 156.706 229.91C122.123 217.652 83.9998 204.124 41.4775 188.465C-14.264 167.967 -68.6646 145.925 -117.648 120.729L-117.081 119.614Z" fill="white"/>
</mask>
<g mask="url(#mask9_1383_1673)">
<path d="M1386.69 808.233L-86.4102 59.2891L-213.366 308.998L1259.73 1057.94L1386.69 808.233Z" fill="#DDF247"/>
</g>
<mask id="mask10_1383_1673" style="mask-type:luminance" maskUnits="userSpaceOnUse" x="-112" y="108" width="1449" height="801">
<path d="M-111.425 108.49C-67.1473 130.074 -19.0003 149.361 30.179 167.45C72.9542 183.184 110.94 196.669 145.387 208.884C366.782 287.404 442.174 314.159 643.225 534.073C648.875 540.257 654.504 546.43 660.132 552.602C821.423 729.493 981.55 905.078 1336.16 907.616L1335.51 908.9C980.835 906.171 820.603 730.481 659.187 553.473C653.558 547.3 647.908 541.116 642.28 534.943C441.427 315.263 366.098 288.54 144.956 210.096C110.372 197.838 72.2497 184.31 29.7274 168.651C-19.4623 150.53 -67.6831 131.232 -111.992 109.606L-111.425 108.49Z" fill="white"/>
</mask>
<g mask="url(#mask10_1383_1673)">
<path d="M1392.29 797.217L-80.8086 48.2734L-209.337 301.077L1263.76 1050.02L1392.29 797.217Z" fill="#DDF247"/>
</g>
<mask id="mask11_1383_1673" style="mask-type:luminance" maskUnits="userSpaceOnUse" x="-107" y="97" width="1454" height="793">
<path d="M-105.6 97.0258C-66.2741 115.271 -24.3076 131.919 18.4465 147.643C61.2217 163.377 99.2075 176.861 133.654 189.076C355.017 267.607 430.442 294.351 631.493 514.265C637.142 520.449 642.771 526.622 648.4 532.795C812.971 713.288 976.316 892.389 1346.27 887.763L1345.62 889.047C975.622 893.493 812.151 714.275 647.465 533.644C641.836 527.471 636.186 521.287 630.558 515.114C429.706 295.434 354.376 268.712 133.234 190.267C98.6507 178.009 60.5279 164.481 18.0056 148.822C-24.7906 133.077 -66.7888 116.44 -106.168 98.1414L-105.6 97.0258Z" fill="white"/>
</mask>
<g mask="url(#mask11_1383_1673)">
<path d="M1397.88 786.213L-75.2188 37.2695L-205.289 293.104L1267.81 1042.05L1397.88 786.213Z" fill="#DDF247"/>
</g>
<mask id="mask12_1383_1673" style="mask-type:luminance" maskUnits="userSpaceOnUse" x="-101" y="85" width="1458" height="785">
<path d="M-99.6019 85.2524C-65.5025 100.39 -29.6744 114.42 6.71762 127.81C49.4928 143.544 87.4787 157.029 121.925 169.244C343.289 247.775 418.692 274.508 619.764 494.433C625.414 500.616 631.042 506.789 636.671 512.962C804.47 697.004 971.013 879.611 1356.6 867.433L1355.93 868.738C970.298 880.704 803.651 697.991 635.725 513.832C630.096 507.659 624.447 501.476 618.818 495.303C417.966 275.622 342.637 248.9 121.495 170.455C86.9111 158.197 48.7882 144.669 6.26599 129.011C-30.1471 115.61 -66.0172 101.559 -100.18 86.389L-99.6019 85.2524Z" fill="white"/>
</mask>
<g mask="url(#mask12_1383_1673)">
<path d="M1403.48 775.217L-69.6172 26.2734L-201.218 285.118L1271.88 1034.06L1403.48 775.217Z" fill="#DDF247"/>
</g>
<mask id="mask13_1383_1673" style="mask-type:luminance" maskUnits="userSpaceOnUse" x="-95" y="73" width="1463" height="777">
<path d="M-93.4789 73.1999C-64.8084 85.4187 -35.1194 96.9368 -5.01563 108.004C37.7595 123.738 75.7454 137.222 110.192 149.438C331.555 227.968 406.958 254.701 608.031 474.626C613.68 480.81 619.309 486.983 624.938 493.156C795.934 680.703 965.621 866.764 1367.15 846.719L1366.49 848.024C964.906 867.857 795.125 681.67 624.003 494.005C618.374 487.832 612.724 481.648 607.096 475.475C406.243 255.795 330.914 229.073 109.772 150.628C75.1885 138.37 37.0657 124.842 -5.45656 109.183C-35.5814 98.106 -65.3335 86.5558 -94.0461 74.3155L-93.4789 73.1999Z" fill="white"/>
</mask>
<g mask="url(#mask13_1383_1673)">
<path d="M1409.08 764.194L-64.0156 15.25L-197.125 277.062L1275.97 1026.01L1409.08 764.194Z" fill="#DDF247"/>
</g>
<mask id="mask14_1383_1673" style="mask-type:luminance" maskUnits="userSpaceOnUse" x="-88" y="60" width="1466" height="770">
<path d="M-87.2226 60.912C-64.1932 70.3687 -40.5909 79.4281 -16.7543 88.1827C26.0208 103.917 64.0067 117.402 98.4532 129.617C319.817 208.147 395.22 234.881 596.292 454.805C601.942 460.989 607.57 467.162 613.199 473.335C787.361 664.346 960.139 853.806 1377.88 825.58L1377.21 826.906C959.435 854.932 786.541 665.333 612.253 474.205C606.625 468.032 600.975 461.848 595.346 455.676C394.494 235.995 319.165 209.273 98.0227 130.828C63.4392 118.57 25.3163 105.042 -17.2059 89.3835C-41.0847 80.6075 -64.729 71.5268 -87.8005 62.0486L-87.2226 60.912Z" fill="white"/>
</mask>
<g mask="url(#mask14_1383_1673)">
<path d="M1414.67 753.213L-58.4238 4.26953L-193.021 269.008L1280.08 1017.95L1414.67 753.213Z" fill="#DDF247"/>
</g>
<mask id="mask15_1383_1673" style="mask-type:luminance" maskUnits="userSpaceOnUse" x="-82" y="48" width="1471" height="762">
<path d="M-80.87 48.3886C-63.6412 55.2406 -46.1364 61.8622 -28.4934 68.3685C14.2817 84.1027 52.2676 97.5874 86.7141 109.802C308.077 188.333 383.481 215.066 584.553 434.991C590.202 441.175 595.831 447.348 601.46 453.521C778.735 647.943 954.595 840.771 1388.84 804.037L1388.17 805.363C953.901 841.875 777.915 648.93 600.525 454.37C594.896 448.197 589.246 442.013 583.618 435.84C382.766 216.16 307.436 189.438 86.2942 110.993C51.7107 98.7348 13.5879 85.2069 -28.9343 69.5483C-46.609 63.0524 -64.1663 56.3777 -81.4479 49.5253L-80.87 48.3886Z" fill="white"/>
</mask>
<g mask="url(#mask15_1383_1673)">
<path d="M1420.26 742.186L-52.832 -6.75781L-188.906 260.885L1284.19 1009.83L1420.26 742.186Z" fill="#DDF247"/>
</g>
<mask id="mask16_1383_1673" style="mask-type:luminance" maskUnits="userSpaceOnUse" x="-75" y="35" width="1475" height="756">
<path d="M-74.4067 35.6818C-63.0848 40.0341 -51.678 44.3235 -40.2285 48.5287C2.54671 64.2629 40.5326 77.7476 74.9791 89.9626C296.363 168.504 371.756 195.258 572.807 415.172C578.457 421.356 584.085 427.529 589.714 433.702C770.081 631.524 948.971 827.667 1399.99 782.079L1399.3 783.426C948.277 828.771 769.272 632.49 588.779 434.551C583.15 428.378 577.501 422.195 571.872 416.022C371.02 196.341 295.691 169.619 74.5485 91.1742C39.9968 78.9057 1.84217 65.3882 -40.6801 49.7296C-52.1928 45.4923 -63.6417 41.1814 -74.9846 36.8185C-74.9846 36.8185 -74.4067 35.6818 -74.4067 35.6818Z" fill="white"/>
</mask>
<g mask="url(#mask16_1383_1673)">
<path d="M505.266 263.134L20.8457 16.8477L-116.673 287.333L367.748 533.619L505.266 263.134Z" fill="#DDF247"/>
</g>
</g>
</svg>
