<svg width="73" height="44" viewBox="0 0 73 44" fill="none" xmlns="http://www.w3.org/2000/svg">
<rect width="73" height="44" rx="22" fill="#DDF247"/>
<path d="M47.5929 18.0087V25.9887C47.5929 27.2954 46.8929 28.5087 45.7612 29.1737L38.8312 33.1754C37.6995 33.8287 36.2995 33.8287 35.1562 33.1754L28.2262 29.1737C27.0945 28.5204 26.3945 27.307 26.3945 25.9887V18.0087C26.3945 16.7021 27.0945 15.4887 28.2262 14.8237L35.1562 10.822C36.2879 10.1687 37.6879 10.1687 38.8312 10.822L45.7612 14.8237C46.8929 15.4887 47.5929 16.6904 47.5929 18.0087Z" stroke="#161616" stroke-width="2" stroke-linecap="round" stroke-linejoin="round"/>
<path d="M37.0015 20.8351C38.5028 20.8351 39.7199 19.618 39.7199 18.1167C39.7199 16.6154 38.5028 15.3984 37.0015 15.3984C35.5002 15.3984 34.2832 16.6154 34.2832 18.1167C34.2832 19.618 35.5002 20.8351 37.0015 20.8351Z" stroke="#161616" stroke-width="2" stroke-linecap="round" stroke-linejoin="round"/>
<path d="M41.6673 27.44C41.6673 25.34 39.579 23.6367 37.0007 23.6367C34.4223 23.6367 32.334 25.34 32.334 27.44" stroke="#161616" stroke-width="2" stroke-linecap="round" stroke-linejoin="round"/>
</svg>
