<svg width="62" height="63" viewBox="0 0 62 63" fill="none" xmlns="http://www.w3.org/2000/svg">
<circle opacity="0.1" cx="31" cy="31.5" r="31" fill="white"/>
<path d="M39.4678 26.2632C38.8452 25.9004 38.0368 25.9004 37.3517 26.2632L32.4934 29.0543L29.1943 30.8734L24.336 33.6629C23.7133 34.0274 22.905 34.0274 22.2199 33.6629L18.3589 31.4792C17.7362 31.1164 17.3008 30.4499 17.3008 29.7209V25.4144C17.3008 24.6871 17.6738 24.0205 18.3589 23.656L22.1558 21.5331C22.7802 21.1686 23.5902 21.1686 24.2753 21.5331L28.0722 23.656C28.6965 24.0205 29.1319 24.6871 29.1319 25.4144V28.2055L32.431 26.3239V23.5345C32.4346 23.1722 32.3376 22.816 32.1508 22.5055C31.964 22.1951 31.6947 21.9426 31.3729 21.7761L24.336 17.7734C23.7133 17.4089 22.905 17.4089 22.2199 17.7734L15.0582 21.7761C14.7363 21.9426 14.467 22.1951 14.2802 22.5055C14.0934 22.816 13.9965 23.1722 14.0001 23.5345V31.6007C14.0001 32.3297 14.373 32.9963 15.0582 33.3608L22.2199 37.3636C22.8426 37.7264 23.6526 37.7264 24.336 37.3636L29.1943 34.6332L32.4934 32.7533L37.3517 30.0246C37.9744 29.6601 38.7827 29.6601 39.4678 30.0246L43.2664 32.1475C43.8908 32.5103 44.3245 33.1769 44.3245 33.9059V38.2124C44.3245 38.9397 43.9532 39.6062 43.2664 39.9707L39.4695 42.1544C38.8452 42.5189 38.0352 42.5189 37.3517 42.1544L33.5532 40.0315C32.9288 39.667 32.4934 39.0004 32.4934 38.2731V35.482L29.1943 37.3636V40.153C29.1943 40.8803 29.5673 41.5486 30.2524 41.9114L37.4142 45.9141C38.0368 46.2786 38.8452 46.2786 39.5303 45.9141L46.692 41.9114C47.3147 41.5486 47.7501 40.882 47.7501 40.153V32.0867C47.7537 31.7244 47.6568 31.3682 47.47 31.0578C47.2832 30.7473 47.0138 30.4948 46.692 30.3284L39.4695 26.2632H39.4678Z" fill="#DDF247"/>
</svg>
