<svg width="32" height="32" viewBox="0 0 32 32" fill="none" xmlns="http://www.w3.org/2000/svg">
<path fill-rule="evenodd" clip-rule="evenodd" d="M7.73382 4.63698C8.89975 4.54389 10.0066 4.0853 10.8967 3.32652C11.902 2.47026 13.1794 2 14.5 2C15.8206 2 17.098 2.47026 18.1033 3.32652C18.9934 4.0853 20.1003 4.54389 21.2662 4.63698C22.5829 4.74221 23.819 5.31299 24.753 6.24699C25.687 7.18099 26.2578 8.41714 26.363 9.73382C26.4555 10.8993 26.914 12.0067 27.6735 12.8967C28.5297 13.902 29 15.1794 29 16.5C29 17.8206 28.5297 19.098 27.6735 20.1033C26.9147 20.9934 26.4561 22.1003 26.363 23.2662C26.2578 24.5829 25.687 25.819 24.753 26.753C23.819 27.687 22.5829 28.2578 21.2662 28.363C20.1003 28.4561 18.9934 28.9147 18.1033 29.6735C17.098 30.5297 15.8206 31 14.5 31C13.1794 31 11.902 30.5297 10.8967 29.6735C10.0066 28.9147 8.89975 28.4561 7.73382 28.363C6.41714 28.2578 5.18099 27.687 4.24699 26.753C3.31299 25.819 2.74221 24.5829 2.63698 23.2662C2.54389 22.1003 2.0853 20.9934 1.32652 20.1033C0.470263 19.098 0 17.8206 0 16.5C0 15.1794 0.470263 13.902 1.32652 12.8967C2.0853 12.0066 2.54389 10.8997 2.63698 9.73382C2.74221 8.41714 3.31299 7.18099 4.24699 6.24699C5.18099 5.31299 6.41714 4.74221 7.73382 4.63698ZM21.2191 14.1564C21.5492 13.8145 21.7319 13.3567 21.7278 12.8815C21.7237 12.4062 21.533 11.9516 21.197 11.6156C20.8609 11.2795 20.4063 11.0889 19.9311 11.0847C19.4558 11.0806 18.998 11.2633 18.6561 11.5935L12.6875 17.5621L10.3439 15.2185C10.002 14.8884 9.54417 14.7057 9.06893 14.7098C8.59369 14.7139 8.13908 14.9046 7.80302 15.2406C7.46697 15.5767 7.27634 16.0313 7.27221 16.5065C7.26808 16.9818 7.45078 17.4396 7.78095 17.7815L11.406 21.4065C11.7459 21.7463 12.2069 21.9372 12.6875 21.9372C13.1681 21.9372 13.629 21.7463 13.9689 21.4065L21.2191 14.1564Z" fill="#DDF247"/>
</svg>
