<svg width="140" height="140" viewBox="0 0 140 140" fill="none" xmlns="http://www.w3.org/2000/svg">
<path d="M125.766 62.6503L117.833 53.4336C116.316 51.6836 115.091 48.4169 115.091 46.0836V36.1669C115.091 29.9836 110.016 24.9086 103.833 24.9086H93.9162C91.6412 24.9086 88.3161 23.6836 86.5661 22.1669L77.3495 14.2336C73.3245 10.7919 66.7328 10.7919 62.6495 14.2336L53.4911 22.2253C51.7411 23.6836 48.4161 24.9086 46.1411 24.9086H36.0495C29.8661 24.9086 24.7911 29.9836 24.7911 36.1669V46.1419C24.7911 48.4169 23.5661 51.6836 22.1078 53.4336L14.2328 62.7086C10.8495 66.7336 10.8495 73.2669 14.2328 77.2919L22.1078 86.5669C23.5661 88.3169 24.7911 91.5836 24.7911 93.8586V103.834C24.7911 110.017 29.8661 115.092 36.0495 115.092H46.1411C48.4161 115.092 51.7411 116.317 53.4911 117.834L62.7078 125.767C66.7328 129.209 73.3245 129.209 77.4078 125.767L86.6245 117.834C88.3745 116.317 91.6412 115.092 93.9745 115.092H103.891C110.074 115.092 115.149 110.017 115.149 103.834V93.9169C115.149 91.6419 116.374 88.3169 117.891 86.5669L125.824 77.3503C129.208 73.3253 129.208 66.6753 125.766 62.6503ZM94.2661 58.9753L66.0911 87.1503C65.2745 87.9669 64.1661 88.4336 62.9995 88.4336C61.8328 88.4336 60.7245 87.9669 59.9078 87.1503L45.7911 73.0336C44.0995 71.3419 44.0995 68.5419 45.7911 66.8503C47.4828 65.1586 50.2828 65.1586 51.9745 66.8503L62.9995 77.8753L88.0828 52.7919C89.7745 51.1003 92.5745 51.1003 94.2661 52.7919C95.9578 54.4836 95.9578 57.2836 94.2661 58.9753Z" fill="#292D32"/>
</svg>
