<svg width="120" height="120" viewBox="0 0 120 120" fill="none" xmlns="http://www.w3.org/2000/svg">
<path d="M74 23.0643L107.505 78.8693C112.32 86.8843 109.955 97.4293 102.22 102.419C99.6239 104.1 96.5978 104.996 93.505 104.999H26.49C17.385 104.999 10 97.3493 10 87.9043C10 84.7093 10.865 81.5843 12.49 78.8693L46 23.0643C50.81 15.0493 60.98 12.5943 68.715 17.5843C70.855 18.9643 72.665 20.8393 74 23.0643ZM60 84.9993C61.3261 84.9993 62.5979 84.4725 63.5355 83.5348C64.4732 82.5971 65 81.3254 65 79.9993C65 78.6732 64.4732 77.4014 63.5355 76.4638C62.5979 75.5261 61.3261 74.9993 60 74.9993C58.6739 74.9993 57.4022 75.5261 56.4645 76.4638C55.5268 77.4014 55 78.6732 55 79.9993C55 81.3254 55.5268 82.5971 56.4645 83.5348C57.4022 84.4725 58.6739 84.9993 60 84.9993ZM60 39.9993C58.6739 39.9993 57.4022 40.5261 56.4645 41.4638C55.5268 42.4014 55 43.6732 55 44.9993V64.9993C55 66.3254 55.5268 67.5971 56.4645 68.5348C57.4022 69.4725 58.6739 69.9993 60 69.9993C61.3261 69.9993 62.5979 69.4725 63.5355 68.5348C64.4732 67.5971 65 66.3254 65 64.9993V44.9993C65 43.6732 64.4732 42.4014 63.5355 41.4638C62.5979 40.5261 61.3261 39.9993 60 39.9993Z" fill="#292D32"/>
</svg>
