<svg width="380" height="210" viewBox="0 0 380 210" fill="none" xmlns="http://www.w3.org/2000/svg">
<rect width="380" height="210" rx="20" fill="#DDF247"/>
<mask id="mask0_1380_507" style="mask-type:alpha" maskUnits="userSpaceOnUse" x="0" y="0" width="380" height="210">
<rect width="380" height="210" rx="20" fill="#DDF247"/>
</mask>
<g mask="url(#mask0_1380_507)">
<g opacity="0.1">
<mask id="mask1_1380_507" style="mask-type:luminance" maskUnits="userSpaceOnUse" x="-1184" y="-410" width="1527" height="812">
<path d="M-1183.13 -409.312C-1180.31 -406.546 -1177.41 -403.797 -1174.46 -401.107C-1099.19 -332.622 -980.225 -290.031 -855.832 -254.817C-810.192 -241.903 -769.7 -230.942 -732.982 -221.015C-497.019 -157.19 -416.644 -135.467 -190.455 76.6946C-184.099 82.6603 -177.766 88.6166 -171.433 94.5729C-29.4064 228.142 111.828 360.93 342.986 400.062L342.449 401.356C111.173 362.122 -30.1782 229.232 -172.336 95.5286C-178.669 89.5723 -185.025 83.6066 -191.358 77.6503C-417.299 -134.275 -497.596 -155.993 -733.322 -219.746C-770.186 -229.707 -810.823 -240.702 -856.196 -253.557C-980.757 -288.815 -1099.9 -331.481 -1175.36 -400.151C-1178.19 -402.74 -1180.97 -405.354 -1183.69 -408.028L-1183.13 -409.312Z" fill="white"/>
</mask>
<g mask="url(#mask1_1380_507)">
<path d="M420.931 212.367L-1167.38 -447.238L-1265.99 -209.796L322.325 449.809L420.931 212.367Z" fill="black"/>
</g>
<mask id="mask2_1380_507" style="mask-type:luminance" maskUnits="userSpaceOnUse" x="-1182" y="-415" width="1532" height="800">
<path d="M-1181.03 -414.375C-1105.5 -349.587 -990.104 -308.531 -869.59 -274.422C-823.949 -261.508 -783.457 -250.547 -746.739 -240.62C-510.776 -176.795 -430.402 -155.072 -204.212 57.0895C-197.857 63.0552 -191.524 69.0114 -185.191 74.9677C-38.999 212.475 106.341 349.15 349.803 383.706L349.266 384.999C105.687 350.342 -39.7708 213.565 -186.102 75.9462C-192.435 69.9899 -198.791 64.0242 -205.124 58.068C-431.065 -153.857 -511.363 -175.575 -747.089 -239.329C-783.953 -249.289 -824.59 -260.285 -869.962 -273.14C-990.454 -307.239 -1105.86 -348.273 -1181.56 -413.081L-1181.03 -414.375Z" fill="white"/>
</mask>
<g mask="url(#mask2_1380_507)">
<path d="M425.861 200.495L-1162.45 -459.109L-1262.61 -217.922L325.699 441.683L425.861 200.495Z" fill="black"/>
</g>
<mask id="mask3_1380_507" style="mask-type:luminance" maskUnits="userSpaceOnUse" x="-1179" y="-421" width="1536" height="789">
<path d="M-1178.37 -420.773C-1103.09 -363.515 -995.434 -325.804 -883.349 -294.078C-837.708 -281.164 -797.216 -270.203 -760.498 -260.276C-524.535 -196.451 -444.161 -174.728 -217.971 37.4336C-211.616 43.3993 -205.283 49.3556 -198.95 55.3118C-48.6427 196.684 100.786 337.159 356.85 366.676L356.303 367.993C100.1 338.364 -49.4145 197.774 -199.852 56.2676C-206.185 50.3113 -212.541 44.3456 -218.874 38.3894C-444.815 -173.536 -525.112 -195.254 -760.839 -259.007C-797.702 -268.968 -838.34 -279.963 -883.712 -292.818C-995.798 -324.545 -1103.48 -362.265 -1178.89 -419.525L-1178.37 -420.773Z" fill="white"/>
</mask>
<g mask="url(#mask3_1380_507)">
<path d="M430.791 188.628L-1157.52 -470.977L-1259.2 -226.135L329.111 433.47L430.791 188.628Z" fill="black"/>
</g>
<mask id="mask4_1380_507" style="mask-type:luminance" maskUnits="userSpaceOnUse" x="-1176" y="-429" width="1541" height="780">
<path d="M-1175.26 -428.264C-1101.21 -377.717 -1001.07 -343.125 -897.095 -313.705C-851.454 -300.791 -810.962 -289.83 -774.244 -279.903C-538.281 -216.078 -457.884 -194.345 -231.718 17.8067C-225.362 23.7724 -219.029 29.7286 -212.696 35.6849C-58.3093 180.88 95.1177 325.118 364.14 349.186L363.593 350.503C94.4632 326.309 -59.1038 181.96 -213.598 36.6406C-219.931 30.6844 -226.287 24.7187 -232.62 18.7624C-458.561 -193.163 -538.859 -214.881 -774.585 -278.634C-811.448 -288.595 -852.086 -299.59 -897.458 -312.445C-1001.43 -341.866 -1101.6 -376.467 -1175.77 -427.039L-1175.26 -428.264Z" fill="white"/>
</mask>
<g mask="url(#mask4_1380_507)">
<path d="M435.721 176.757L-1152.59 -482.848L-1255.76 -234.42L332.552 425.184L435.721 176.757Z" fill="black"/>
</g>
<mask id="mask5_1380_507" style="mask-type:luminance" maskUnits="userSpaceOnUse" x="-1173" y="-437" width="1545" height="770">
<path d="M-1171.76 -436.682C-1099.8 -392.135 -1006.96 -360.523 -910.864 -333.337C-865.223 -320.424 -824.731 -309.462 -788.013 -299.536C-552.05 -235.71 -471.653 -213.978 -245.486 -1.82579C-239.131 4.1399 -232.798 10.0962 -226.465 16.0525C-68.0573 165.019 89.3545 312.988 371.592 331.182L371.045 332.498C88.6772 314.17 -68.852 166.1 -227.367 17.0082C-233.7 11.0519 -240.056 5.08622 -246.389 -0.870046C-472.33 -212.795 -552.627 -234.513 -788.354 -298.267C-825.217 -308.227 -865.855 -319.223 -911.227 -332.078C-1007.34 -359.273 -1100.19 -390.885 -1172.27 -435.456L-1171.76 -436.682V-436.682Z" fill="white"/>
</mask>
<g mask="url(#mask5_1380_507)">
<path d="M440.65 164.89L-1147.66 -494.715L-1252.31 -242.724L336.002 416.88L440.65 164.89Z" fill="black"/>
</g>
<mask id="mask6_1380_507" style="mask-type:luminance" maskUnits="userSpaceOnUse" x="-1169" y="-446" width="1549" height="760">
<path d="M-1167.92 -445.918C-1098.72 -406.775 -1013.05 -378.009 -924.611 -352.963C-878.97 -340.049 -838.478 -329.087 -801.76 -319.161C-565.797 -255.336 -485.423 -233.612 -259.233 -21.4511C-252.878 -15.4854 -246.545 -9.52913 -240.212 -3.57286C-77.8516 149.138 83.4638 300.776 379.282 312.662L378.736 313.979C82.8187 301.945 -78.6367 150.196 -241.127 -2.64924C-247.46 -8.60551 -253.816 -14.5712 -260.149 -20.5275C-486.09 -232.453 -566.388 -254.171 -802.114 -317.924C-838.977 -327.885 -879.615 -338.88 -924.987 -351.735C-1013.46 -376.768 -1099.15 -405.544 -1168.45 -444.725L-1167.92 -445.918Z" fill="white"/>
</mask>
<g mask="url(#mask6_1380_507)">
<path d="M445.578 153.019L-1142.73 -506.586L-1248.85 -251.055L339.459 408.55L445.578 153.019Z" fill="black"/>
</g>
<mask id="mask7_1380_507" style="mask-type:luminance" maskUnits="userSpaceOnUse" x="-1165" y="-456" width="1553" height="752">
<path d="M-1163.8 -455.839C-1098.01 -421.569 -1019.34 -395.527 -938.379 -372.601C-892.738 -359.687 -852.246 -348.725 -815.528 -338.799C-579.565 -274.974 -499.168 -253.241 -273.001 -41.0891C-266.646 -35.1234 -260.313 -29.1671 -253.98 -23.2108C-87.6935 133.179 77.4894 288.446 387.172 293.663L386.616 295.002C76.8255 289.661 -88.488 134.26 -254.891 -22.2324C-261.225 -28.1887 -267.58 -34.1544 -273.913 -40.1107C-499.845 -252.059 -580.142 -273.776 -815.869 -337.53C-852.732 -347.49 -893.37 -358.486 -938.742 -371.341C-1019.74 -394.255 -1098.44 -420.338 -1164.3 -454.636L-1163.8 -455.839Z" fill="white"/>
</mask>
<g mask="url(#mask7_1380_507)">
<path d="M450.51 141.148L-1137.8 -518.457L-1245.36 -259.454L342.949 400.151L450.51 141.148Z" fill="black"/>
</g>
<mask id="mask8_1380_507" style="mask-type:luminance" maskUnits="userSpaceOnUse" x="-1160" y="-467" width="1556" height="743">
<path d="M-1159.43 -466.369C-1097.52 -436.508 -1025.79 -413.076 -952.125 -392.225C-906.484 -379.312 -865.992 -368.35 -829.274 -358.424C-593.302 -294.621 -512.937 -272.875 -286.748 -60.7139C-280.392 -54.7482 -274.059 -48.792 -267.726 -42.8357C-97.5723 117.183 71.4328 276.059 395.301 274.155L394.745 275.494C70.801 277.26 -98.3441 118.273 -268.628 -41.88C-274.961 -47.8363 -281.317 -53.802 -287.65 -59.7582C-513.592 -271.683 -593.889 -293.401 -829.615 -357.155C-866.479 -367.115 -907.116 -378.111 -952.488 -390.966C-1026.17 -411.826 -1097.95 -435.277 -1159.93 -465.166L-1159.43 -466.369Z" fill="white"/>
</mask>
<g mask="url(#mask8_1380_507)">
<path d="M455.439 129.281L-1132.87 -530.324L-1241.86 -267.871L346.446 391.734L455.439 129.281Z" fill="black"/>
</g>
<mask id="mask9_1380_507" style="mask-type:luminance" maskUnits="userSpaceOnUse" x="-1156" y="-478" width="1560" height="734">
<path d="M-1154.82 -477.467C-1097.29 -451.606 -1032.36 -430.682 -965.896 -411.86C-920.255 -398.946 -879.763 -387.985 -843.045 -378.058C-607.082 -314.233 -526.685 -292.5 -300.518 -80.3485C-294.163 -74.3828 -287.83 -68.4265 -281.497 -62.4702C-107.521 101.158 65.2479 263.593 403.58 254.151L403.015 255.513C64.5933 264.785 -108.293 102.248 -282.409 -61.4918C-288.742 -67.4481 -295.097 -73.4138 -301.43 -79.37C-527.362 -291.318 -607.659 -313.036 -843.386 -376.789C-880.249 -386.75 -920.887 -397.745 -966.259 -410.601C-1032.78 -429.419 -1097.73 -450.352 -1155.33 -476.241L-1154.82 -477.467Z" fill="white"/>
</mask>
<g mask="url(#mask9_1380_507)">
<path d="M460.367 117.409L-1127.94 -542.195L-1238.36 -276.315L349.95 383.29L460.367 117.409Z" fill="black"/>
</g>
<mask id="mask10_1380_507" style="mask-type:luminance" maskUnits="userSpaceOnUse" x="-1151" y="-490" width="1564" height="727">
<path d="M-1150.03 -489.016C-1097.26 -466.809 -1039.07 -448.287 -979.642 -431.483C-934.001 -418.569 -893.509 -407.608 -856.791 -397.681C-620.829 -333.856 -540.454 -312.133 -314.265 -99.9715C-307.909 -94.0058 -301.576 -88.0495 -295.243 -82.0933C-117.503 85.0937 59.0022 251.023 412.114 233.669L411.549 235.031C58.3798 252.202 -118.266 86.1608 -296.145 -81.1375C-302.478 -87.0938 -308.834 -93.0595 -315.167 -99.0158C-541.108 -310.941 -621.406 -332.659 -857.132 -396.412C-893.995 -406.373 -934.633 -417.368 -980.005 -430.224C-1039.48 -447.046 -1097.69 -465.578 -1150.53 -487.813L-1150.03 -489.016Z" fill="white"/>
</mask>
<g mask="url(#mask10_1380_507)">
<path d="M465.297 105.542L-1123.01 -554.062L-1234.83 -284.823L353.485 374.782L465.297 105.542Z" fill="black"/>
</g>
<mask id="mask11_1380_507" style="mask-type:luminance" maskUnits="userSpaceOnUse" x="-1146" y="-501" width="1567" height="718">
<path d="M-1145.05 -500.999C-1097.39 -482.135 -1045.89 -465.964 -993.413 -451.117C-947.772 -438.204 -907.28 -427.242 -870.562 -417.316C-634.567 -353.504 -554.202 -331.758 -328.036 -119.606C-321.68 -113.64 -315.347 -107.684 -309.014 -101.728C-127.537 68.9539 52.6276 238.372 420.789 212.713L420.214 214.097C51.9731 239.564 -128.309 70.0436 -309.926 -100.749C-316.259 -106.705 -322.614 -112.671 -328.947 -118.627C-554.889 -330.553 -635.186 -352.27 -870.912 -416.024C-907.776 -425.984 -948.413 -436.98 -993.786 -449.835C-1046.27 -464.714 -1097.85 -480.891 -1145.55 -499.796L-1145.05 -500.999V-500.999Z" fill="white"/>
</mask>
<g mask="url(#mask11_1380_507)">
<path d="M470.224 93.6751L-1118.09 -565.93L-1231.28 -293.354L357.027 366.251L470.224 93.6751Z" fill="black"/>
</g>
<mask id="mask12_1380_507" style="mask-type:luminance" maskUnits="userSpaceOnUse" x="-1141" y="-514" width="1571" height="712">
<path d="M-1139.91 -513.371C-1097.65 -497.576 -1052.78 -483.651 -1007.16 -470.746C-961.516 -457.833 -921.024 -446.871 -884.306 -436.945C-648.344 -373.119 -567.946 -351.387 -341.78 -139.235C-335.424 -133.269 -329.091 -127.313 -322.758 -121.357C-137.59 52.8005 46.1949 225.611 429.712 191.294L429.137 192.678C45.563 226.813 -138.362 53.8902 -323.66 -120.401C-329.993 -126.357 -336.349 -132.323 -342.682 -138.279C-568.623 -350.204 -648.921 -371.922 -884.647 -435.676C-921.51 -445.636 -962.148 -456.632 -1007.52 -469.487C-1053.18 -482.41 -1098.09 -496.323 -1140.41 -512.168L-1139.91 -513.371Z" fill="white"/>
</mask>
<g mask="url(#mask12_1380_507)">
<path d="M475.156 81.8001L-1113.15 -577.805L-1227.71 -301.961L360.602 357.644L475.156 81.8001Z" fill="black"/>
</g>
<mask id="mask13_1380_507" style="mask-type:luminance" maskUnits="userSpaceOnUse" x="-1136" y="-527" width="1575" height="705">
<path d="M-1134.63 -526.083C-1098.04 -513.096 -1059.75 -501.396 -1020.92 -490.406C-975.275 -477.492 -934.783 -466.531 -898.065 -456.604C-662.103 -392.779 -581.728 -371.056 -355.539 -158.895C-349.183 -152.929 -342.85 -146.973 -336.517 -141.016C-147.716 36.5653 39.6657 212.759 438.794 169.358L438.21 170.766C39.0111 213.951 -148.488 37.6551 -337.429 -140.038C-343.762 -145.994 -350.118 -151.96 -356.451 -157.916C-582.392 -369.841 -662.689 -391.559 -898.416 -455.313C-935.279 -465.273 -975.916 -476.269 -1021.29 -489.124C-1060.14 -500.123 -1098.48 -511.842 -1135.14 -524.857L-1134.63 -526.083Z" fill="white"/>
</mask>
<g mask="url(#mask13_1380_507)">
<path d="M480.086 69.929L-1108.22 -589.676L-1224.13 -310.587L364.184 349.018L480.086 69.929Z" fill="black"/>
</g>
<mask id="mask14_1380_507" style="mask-type:luminance" maskUnits="userSpaceOnUse" x="-1130" y="-540" width="1579" height="698">
<path d="M-1129.24 -539.065C-1098.52 -528.674 -1066.79 -519.091 -1034.67 -510.01C-989.031 -497.096 -948.539 -486.134 -911.821 -476.208C-675.859 -412.383 -595.484 -390.659 -369.295 -178.498C-362.939 -172.532 -356.606 -166.576 -350.273 -160.62C-157.875 20.3449 33.0451 199.871 448.091 147.035L447.507 148.442C32.3906 201.063 -158.637 21.412 -351.175 -159.664C-357.508 -165.62 -363.864 -171.586 -370.197 -177.542C-596.138 -389.468 -676.436 -411.185 -912.162 -474.939C-949.026 -484.899 -989.663 -495.895 -1035.04 -508.75C-1067.18 -517.841 -1098.97 -527.452 -1129.74 -537.862L-1129.24 -539.065Z" fill="white"/>
</mask>
<g mask="url(#mask14_1380_507)">
<path d="M485.015 58.0579L-1103.29 -601.547L-1220.53 -319.258L367.784 340.347L485.015 58.0579Z" fill="black"/>
</g>
<mask id="mask15_1380_507" style="mask-type:luminance" maskUnits="userSpaceOnUse" x="-1125" y="-553" width="1583" height="692">
<path d="M-1123.73 -552.34C-1099.08 -544.365 -1073.87 -536.848 -1048.43 -529.665C-1002.79 -516.752 -962.3 -505.79 -925.582 -495.864C-689.62 -432.039 -609.245 -410.315 -383.056 -198.154C-376.7 -192.188 -370.367 -186.232 -364.034 -180.276C-168.075 4.03051 26.3247 186.838 457.54 124.218L456.946 125.648C25.6834 188.062 -168.847 5.12032 -364.946 -179.297C-371.279 -185.254 -377.635 -191.219 -383.968 -197.176C-609.909 -409.101 -690.206 -430.819 -925.933 -494.572C-962.796 -504.533 -1003.43 -515.528 -1048.81 -528.383C-1074.28 -535.585 -1099.54 -543.121 -1124.24 -551.115L-1123.73 -552.34Z" fill="white"/>
</mask>
<g mask="url(#mask15_1380_507)">
<path d="M489.943 46.1907L-1098.37 -613.414L-1216.91 -327.97L371.402 331.635L489.943 46.1907Z" fill="black"/>
</g>
<mask id="mask16_1380_507" style="mask-type:luminance" maskUnits="userSpaceOnUse" x="-1119" y="-566" width="1587" height="685">
<path d="M-1118.13 -565.822C-1099.71 -560.087 -1081.02 -554.613 -1062.19 -549.269C-1016.55 -536.355 -976.056 -525.394 -939.338 -515.467C-703.376 -451.642 -623.001 -429.919 -396.812 -217.757C-390.456 -211.792 -384.123 -205.836 -377.79 -199.879C-178.329 -12.2824 19.5376 173.774 467.204 101.009L466.611 102.439C18.9057 174.975 -179.1 -11.1926 -378.692 -198.924C-385.025 -204.88 -391.381 -210.845 -397.714 -216.802C-623.655 -428.727 -703.953 -450.445 -939.679 -514.198C-976.543 -524.159 -1017.18 -535.154 -1062.55 -548.01C-1081.41 -553.34 -1100.16 -558.865 -1118.64 -564.597L-1118.13 -565.822Z" fill="white"/>
</mask>
<g mask="url(#mask16_1380_507)">
<path d="M494.873 34.3196L-1093.44 -625.285L-1213.28 -336.709L375.031 322.896L494.873 34.3196Z" fill="black"/>
</g>
<mask id="mask17_1380_507" style="mask-type:luminance" maskUnits="userSpaceOnUse" x="-1113" y="-580" width="1591" height="679">
<path d="M-1112.44 -579.532C-1100.34 -575.92 -1088.16 -572.379 -1075.95 -568.929C-1030.31 -556.015 -989.816 -545.054 -953.098 -535.127C-717.113 -471.292 -636.747 -449.546 -410.581 -237.394C-404.225 -231.429 -397.892 -225.473 -391.559 -219.516C-188.618 -28.6383 12.6558 160.616 477.012 77.3264L476.409 78.7789C12.0239 161.817 -189.381 -27.5712 -392.461 -218.561C-398.795 -224.517 -405.15 -230.483 -411.483 -236.439C-637.425 -448.364 -717.722 -470.082 -953.448 -533.836C-990.28 -543.809 -1030.95 -554.791 -1076.32 -567.647C-1088.61 -571.125 -1100.83 -574.685 -1112.95 -578.307C-1112.95 -578.307 -1112.44 -579.532 -1112.44 -579.532Z" fill="white"/>
</mask>
<g mask="url(#mask17_1380_507)">
<path d="M499.803 22.4485L-1088.51 -637.156L-1209.62 -345.516L378.688 314.089L499.803 22.4485Z" fill="black"/>
</g>
</g>
</g>
<path d="M215.782 99.7571C212.103 107.178 204.809 112.034 194.982 115.081C187.453 118.779 179.295 119.89 170.733 119.298C161.394 113.517 155.784 97.9994 150.515 81.5747C142.35 63.1991 138.937 46.3683 144.058 36.2231C146.348 31.2113 156.032 24.3744 165.219 22.6462C173.226 20.5656 183.595 19.6995 189.739 23.9314C198.69 31.1332 203.696 45.3312 207.75 61.2017L215.782 99.7571Z" fill="#231F20"/>
<path d="M207.63 90.3766C210.053 104.375 200.125 107.656 192.376 110.057C186.441 112.972 176.601 112.771 171.58 108.716C164.215 104.156 159.521 90.5667 155.365 77.6011C149.731 62.5717 146.783 48.1875 150.817 40.1817C152.627 36.2227 160.47 30.8974 167.722 29.5289C174.04 27.8909 182.22 27.1971 187.071 30.5456C194.136 36.2345 198.085 47.4322 201.278 59.9553L207.63 90.3766Z" fill="white"/>
<path opacity="0.44" d="M171.579 108.72C172.117 109.155 172.719 109.53 173.352 109.881C179.843 97.768 186.413 85.7202 193.394 73.8861C196.044 69.3846 198.74 64.9067 201.383 60.3856L201.296 59.9611C198.927 50.6777 196.141 42.1142 191.981 35.9991C191.597 36.6847 191.203 37.3693 190.817 38.0642C188.861 41.5451 187.084 45.1112 185.243 48.6517C183.281 52.4529 181.263 56.2387 179.237 60.0142C175.232 67.4853 171.226 74.9656 167.256 82.4593C165.233 86.2918 163.212 90.1149 161.216 93.9597C164.065 100.605 167.383 106.121 171.579 108.72Z" fill="#E5E6E7"/>
<path d="M201.94 63.1147C199.229 67.7419 196.465 72.3351 193.755 76.9529C190.075 83.2319 186.475 89.5572 182.982 95.9411C180.308 100.836 177.67 105.745 175.041 110.664C180.324 112.719 187.596 112.39 192.366 110.049C200.116 107.639 210.043 104.367 207.62 90.3691L201.94 63.1147Z" fill="#E5E6E7"/>
<path d="M184.823 117.903C178.389 119.387 171.106 120.705 165.912 115.603C163.717 113.453 162.264 110.703 161.121 107.882C160.182 105.545 159.176 103.296 158.418 100.941C158.55 98.6336 158.346 96.2999 157.952 94.1629C157.482 91.6688 156.678 89.2051 155.493 86.9554C154.325 84.7265 152.701 83.0529 151.194 81.0803C150.258 79.8575 150.424 78.3937 150.338 76.8936C150.257 75.3562 150.167 73.8085 149.98 72.2882C149.634 69.524 148.928 66.5895 147.516 64.1647C146.479 62.3839 144.889 60.8365 142.715 60.7839C142.244 60.7714 141.785 60.8356 141.347 60.9588C140.966 60.6351 140.351 60.56 139.932 61.0437C137.064 64.3991 136.003 68.6833 135.619 72.9925C135.344 76.0112 135.409 79.1133 134.622 82.0679C133.931 84.6552 132.844 87.0588 132.483 89.738C132.163 92.1196 132.27 94.5656 132.553 96.9549C132.709 98.236 133.007 99.5041 133.163 100.785C133.302 101.961 133.381 102.46 132.586 103.281C132.054 103.838 131.149 104.184 130.484 104.585C125.482 107.6 120.299 110.359 115.169 113.162C114.458 113.548 69.4699 147.123 69.8848 147.922C73.5403 154.965 100.11 145.064 104.887 151.415C107.226 154.523 124.299 153.017 126.887 155.916C128.927 158.2 138.216 150.101 141.614 148.595C148.456 145.579 154.875 140.696 160.649 136.018C166.764 131.065 172.414 125.685 179.619 122.283C179.668 122.26 179.699 122.235 179.74 122.211C181.676 121.663 183.583 120.856 185.372 119.83C186.343 119.311 186.041 117.627 184.823 117.903Z" fill="#C3D73A"/>
<path d="M212.885 42.3456C210.449 39 205.182 38.9288 203.388 42.9178C203.103 43.5573 203.225 44.0894 203.553 44.4641C205.527 49.3174 205.939 54.8251 207.377 59.8382C207.935 61.7756 210.729 61.4131 210.527 59.325C210.497 58.9821 210.449 58.6373 210.392 58.2914C210.638 58.1007 210.855 57.8407 211.014 57.4991C213.086 53.0302 216.269 46.9813 212.885 42.3456Z" fill="#C3D73A"/>
<path d="M214.897 63.916C211.794 61.9618 208.012 64.0591 205.802 66.3806C205.547 66.646 205.479 66.9312 205.527 67.1911C201.581 70.2144 197.917 75.1929 202.158 78.514C207.201 82.4586 215.158 77.9286 217.107 72.7483C218.264 69.6823 217.869 65.7806 214.897 63.916Z" fill="#C3D73A"/>
<path d="M222.356 90.4278C221.625 88.3399 219.359 87.466 217.284 87.6408C217.065 87.6553 216.834 87.6967 216.602 87.7475C219.963 86.0582 222.723 81.7666 220.505 78.4065C218.865 75.9102 215.768 76.2875 213.637 77.8625C213.483 77.9782 213.329 78.0939 213.185 78.2106C212.286 78.4923 211.452 78.8845 210.808 79.3443C209.018 80.6443 207.859 83.1062 208.656 85.2767C209.497 87.5651 211.99 88.6992 214.338 88.4496C214.462 88.4345 214.587 88.4195 214.703 88.3941C211.456 89.9067 208.28 93.3992 211.265 96.3787C214.02 99.126 221.522 97.6238 222.012 93.3825C222.544 92.5522 222.718 91.4572 222.356 90.4278Z" fill="#C3D73A"/>
<path d="M283.108 148.349C281.874 145.849 278.886 143.171 277.165 140.987C273.486 136.291 270.271 133.344 266.592 128.648C269.215 119.36 268.21 112.505 266.092 106.618C263.858 100.406 260.886 95.8898 255.919 92.1138C255.747 91.954 254.601 90.671 254.429 90.5111C251.964 88.2288 245.898 84.9488 243.345 89.3287C243.067 89.8086 241.189 90.5235 241.129 91.0834C239.076 90.2509 236.859 90.156 234.821 91.656C232.844 93.1154 232.223 95.2196 232.282 97.4057C229.687 96.5249 226.932 96.4292 224.398 97.9801C222.6 99.0905 221.454 100.903 221.109 102.989C220.901 104.222 220.981 105.514 221.102 106.763C221.129 107.04 221.167 107.308 221.204 107.576C220.563 106.951 219.982 106.294 219.674 105.997C218.606 104.949 217.591 103.85 216.586 102.743C214.355 100.306 212.167 97.8172 209.672 95.6448C207.358 93.6239 201.209 89.3444 197.944 91.2985C197.538 91.208 197.093 91.3115 196.804 91.7149C193.891 95.8486 196.619 100.358 198.612 104.232C199.863 106.658 201.115 109.075 202.406 111.478C203.461 113.44 204.481 116.172 206.457 117.374C209.295 123.678 212.83 129.283 216.83 134.956C219.42 138.63 221.434 141.6 225.362 143.614C227.474 144.688 228.745 147.108 230.094 148.969C231.798 151.302 233.462 153.669 235.105 156.043C236.576 158.172 238.197 160.846 239.609 163.006C240.931 165.035 241.526 168.92 243.531 170.379C248.996 174.35 259.865 170.301 265.155 167.675C269.231 165.647 273.212 162.826 276.459 159.464C279.007 156.801 285.126 152.433 283.108 148.349Z" fill="#C3D73A"/>
<path d="M174.475 118.627C172.445 118.458 170.782 118.13 168.964 117.388C168.245 116.698 167.534 116.019 166.913 115.207C165.896 113.862 164.875 112.725 163.558 111.631C163.376 111.479 163.193 111.337 163.01 111.195C163.352 108.788 161.063 106.533 159.194 105.296C158.939 105.127 158.683 105.053 158.437 105.055C158.998 102.095 159.213 99.1077 158.706 96.0718C157.973 91.7094 156.368 87.4711 153.943 83.7586C152.808 82.0145 150.637 80.3391 150.634 78.2439C150.622 76.0534 150.772 73.9461 150.372 71.7614C149.51 67.0173 147.376 63.402 143.975 60.0761C142.659 58.7939 140.674 60.3279 141.735 61.8848C144.004 65.2032 145.427 69.6485 145.824 73.6165C146.033 75.7243 145.477 77.7598 145.605 79.8306C145.732 81.9107 147.376 83.3035 148.496 84.9233C151.987 89.9762 153.823 96.7398 153.607 103.096C153.014 106.354 152.004 109.54 150.73 112.546C150.681 112.654 150.651 112.755 150.63 112.866C150.53 113.1 150.438 113.336 150.347 113.572C150.043 114.389 150.575 115.153 151.39 115.297C151.649 115.343 151.91 115.38 152.169 115.427C152.351 115.484 152.546 115.514 152.754 115.518C154.64 115.794 156.515 115.994 158.374 116.523C158.631 116.597 158.886 116.681 159.141 116.765C160.125 117.181 161.088 117.624 162.006 117.948C162.125 117.989 162.252 118.031 162.371 118.072C163.136 118.418 163.91 118.765 164.696 119.094C167.77 120.356 171.71 121.371 174.741 119.496C175.096 119.26 174.868 118.66 174.475 118.627Z" fill="#707D14"/>
<path d="M208.949 50.0592C208.076 47.6258 206.65 44.454 203.986 43.5942C203.402 43.4092 202.935 44.1615 203.459 44.5571C203.608 44.6673 203.744 44.8045 203.879 44.9511C203.772 45.0717 203.699 45.2244 203.689 45.412C203.543 50.1336 206.72 54.4169 206.707 59.2187C206.707 60.4643 208.273 60.905 208.832 59.7379C210.352 56.635 210.091 53.2384 208.949 50.0592Z" fill="#707D14"/>
<path d="M215.721 72.731C213.804 74.8668 211.436 75.8315 208.615 76.0967C205.449 76.4007 203.42 72.6927 203.547 69.9037C203.595 68.9274 203.095 69.4591 202.678 70.3583C201.069 73.8574 201.139 79.121 205.889 80.0618C209.725 80.8201 214.839 76.487 216.578 73.3604C216.905 72.7725 216.191 72.215 215.721 72.731Z" fill="#707D14"/>
<path d="M220.032 83.2684C218.046 84.5474 216.052 85.9012 213.55 85.6531C212.27 85.5261 210.973 84.8593 210.942 83.3838C210.912 82.1633 211.916 81.0626 212.685 80.2292C213.454 79.3865 212.104 78.1479 211.255 78.8594C208.527 81.1634 206.687 85.7609 210.789 87.8216C214.498 89.6798 218.721 87.1578 220.956 84.1596C221.41 83.5286 220.619 82.8969 220.032 83.2684Z" fill="#707D14"/>
<path d="M219.956 93.9807C218.341 94.0821 216.988 95.004 215.309 94.8155C214.452 94.7146 213.474 94.5065 213.121 93.6573C212.693 92.6302 213.511 90.6226 214.244 89.9459C215.019 89.2264 214.201 88.6674 213.147 89.2533C211.883 89.9583 210.61 90.9265 210.254 92.4078C209.878 93.9813 210.534 95.5328 211.811 96.4712C214.287 98.2924 218.778 97.3277 220.387 94.7156C220.624 94.3539 220.365 93.9489 219.956 93.9807Z" fill="#707D14"/>
<path d="M243.3 167.341C239.818 161.59 237.672 156.228 236.601 150.169C235.336 143.013 236.508 142.459 235.966 142.505C232.087 142.855 226.131 138.983 222.072 135.37C218.091 131.822 215.046 126.836 212.108 122.446C209.275 118.218 207.002 114.578 204.156 110.387C202.524 107.995 200.444 104.763 199.134 102.179C197.754 99.4559 195.701 95.1697 197.622 92.3832C198.426 91.214 198.51 90.9587 197.589 91.9834C193.195 96.9029 195.811 103.514 198.758 108.443C200.463 111.304 202.338 114.071 204.389 116.696C206.423 119.301 208.14 121.777 209.813 124.673C213.065 130.286 215.67 134.612 220.245 138.695C222.708 140.902 224.806 143.353 227.978 144.229C230.995 149.203 233.379 154.628 237.178 159.091C237.379 159.33 237.608 159.486 237.852 159.588C238.962 162.622 240.543 165.669 242.515 167.974C243.296 168.878 243.701 168.006 243.3 167.341Z" fill="#707D14"/>
<path d="M224.631 104.567C224.412 102.902 224.096 100.641 225.955 99.7546C227 99.2527 226.561 97.4412 225.35 97.7367C219.722 99.0991 221.688 105.971 223.493 109.655C223.95 110.591 225.437 110.193 225.258 109.126C225.003 107.617 224.826 106.098 224.631 104.567Z" fill="#707D14"/>
<path d="M237.006 91.4223C234.497 93.0041 232.833 96.6579 234.484 99.4101C235.044 100.347 236.358 99.978 236.297 98.8674C236.166 96.6453 236.434 94.4847 238.266 92.9721C239.27 92.1356 238.058 90.7607 237.006 91.4223Z" fill="#707D14"/>
<path d="M246.423 93.7474C246.373 92.0907 245.86 90.6205 246.476 88.9972C246.95 87.7454 245.04 86.9849 244.538 88.2337C243.767 90.1613 243.549 92.9973 245.483 94.3266C245.949 94.6499 246.435 94.2489 246.423 93.7474Z" fill="#707D14"/>
<path d="M278.205 144.339C275.882 140.902 273.237 137.742 270.74 134.437C269.987 133.441 268.834 131.959 267.515 130.969C267.166 130.611 266.838 130.237 266.563 129.801C266.233 129.276 265.501 129.499 265.236 129.952C264.928 129.92 264.615 129.933 264.296 130.003C262.7 130.371 263.069 132.835 264.714 132.539C265.571 132.385 267.053 134.327 267.625 134.888C268.694 135.927 269.807 136.904 270.867 137.932C273.177 140.161 275.275 142.611 277.584 144.849C277.943 145.198 278.498 144.776 278.205 144.339Z" fill="#707D14"/>
<path d="M141.058 86.5568C141.459 84.0329 137.723 83.757 137.186 86.1437C136.344 89.8757 136.179 93.4534 138.019 96.9053C138.585 97.9753 140.361 97.8628 140.467 96.5153C140.736 93.1941 140.537 89.8418 141.058 86.5568Z" fill="white" fill-opacity="0.7"/>
<path d="M141.118 100.332C141.124 100.181 141.111 100.038 141.07 99.8924C141.042 99.8044 141.028 99.7558 140.988 99.6855L140.819 99.3277C140.695 99.0785 140.491 98.868 140.228 98.7645C139.975 98.662 139.625 98.6625 139.386 98.7879C139.136 98.9123 138.917 99.1153 138.822 99.3789C138.739 99.6342 138.692 99.9784 138.846 100.221C138.919 100.333 138.982 100.453 139.055 100.564C139.167 100.746 139.261 100.926 139.436 101.058C139.488 101.101 139.551 101.127 139.604 101.161C139.906 101.344 140.228 101.416 140.556 101.262C140.843 101.133 141.103 100.821 141.11 100.491C141.116 100.435 141.122 100.379 141.118 100.332Z" fill="white" fill-opacity="0.7"/>
<path d="M262.616 110.797C262.02 108.686 260.961 106.94 259.564 105.262C258.435 103.906 255.9 105.287 256.828 106.943C257.725 108.529 258.331 110.274 258.775 112.039C259.145 113.522 259.455 115.31 260.35 116.557C260.77 117.139 261.666 117.046 262.071 116.523C263.233 115.015 263.11 112.539 262.616 110.797Z" fill="white" fill-opacity="0.7"/>
<path d="M261.924 119.33C261.784 118.871 261.169 118.617 260.736 118.694C260.256 118.775 259.863 119.186 259.811 119.671C259.801 119.764 259.792 119.848 259.773 119.94C259.797 119.801 259.729 120.002 259.737 120.012C259.713 120.057 259.669 120.118 259.659 120.126C259.593 120.214 259.508 120.299 259.442 120.386C259.354 120.509 259.281 120.662 259.21 120.796C259.199 120.813 259.186 120.84 259.165 120.866C258.968 121.204 258.877 121.524 258.827 121.906C258.726 122.763 259.479 123.316 260.259 123.257C261.219 123.19 262.004 122.292 262.131 121.362C262.253 120.667 262.128 119.984 261.924 119.33Z" fill="white" fill-opacity="0.7"/>
<path d="M187.347 116.315C181.958 119.949 176.617 123.663 171.261 127.338C164.827 131.747 158.393 136.157 151.877 140.444C150.457 141.378 149.037 142.302 147.6 143.215C147.296 143.409 146.983 143.602 146.679 143.796C146.518 143.892 146.365 143.999 146.204 144.095C146.123 144.143 145.759 144.368 146.002 144.215C145.487 144.528 141.408 147.119 140.885 147.422C140.332 147.74 140.012 148.357 140.294 148.982C140.539 149.518 141.3 149.901 141.854 149.573C147.297 146.407 156.061 140.503 161.277 136.983C167.837 132.55 174.365 128.056 180.893 123.562C183.531 121.749 186.178 119.927 188.833 118.134C189.362 117.775 189.385 116.938 189.01 116.473C188.584 115.956 187.885 115.957 187.347 116.315Z" fill="black"/>
<path d="M203.449 43.663C204.887 41.8537 207.109 39.7788 209.595 40.5347C210.683 40.8677 211.651 41.6126 212.313 42.3911C212.615 42.7441 212.835 43.0696 212.994 43.3507C213.206 43.7508 213.459 44.3818 213.529 44.6156C214.037 46.491 213.804 48.4951 213.281 50.2983C212.681 52.3858 211.713 54.4718 210.671 56.2762C209.573 58.169 208.312 59.9973 206.88 61.6563C206.46 62.14 206.647 62.9526 207.128 63.3059C207.67 63.7128 208.367 63.5419 208.778 63.0572C210.147 61.4575 211.361 59.7186 212.432 57.9078C213.71 55.7417 214.841 53.456 215.515 51.0273C216.145 48.7542 216.464 46.297 215.793 43.9985C215.052 41.4848 213.127 39.2695 210.627 38.38C206.972 37.0842 203.731 39.5128 201.551 42.2527C200.593 43.4527 202.501 44.8453 203.449 43.663Z" fill="black"/>
<path d="M144.856 59.2576C143.796 55.134 142.986 50.8673 142.999 46.5939C143.015 42.5474 143.746 38.3507 146.088 34.9676C148.274 31.8224 151.68 29.7889 155.021 28.107C158.749 26.24 162.713 24.8227 166.777 23.8785C170.908 22.9227 175.19 22.4076 179.434 22.6998C183.284 22.969 187.186 23.8948 190.441 26.0255C193.202 27.8299 195.327 30.4629 197.008 33.2844C198.905 36.4687 200.349 39.916 201.551 43.4132C203.54 49.1834 204.802 55.2252 205.99 61.2497C206.077 61.6742 206.155 62.0883 206.242 62.5128C206.555 63.9994 208.888 63.6255 208.576 62.1295C207.353 56.2617 206.232 50.4047 204.437 44.674C203.283 40.984 201.897 37.3446 200.081 33.9331C198.366 30.7211 196.259 27.6559 193.443 25.3077C186.849 19.8012 177.248 19.5697 169.18 20.9832C164.776 21.7589 160.445 23.0804 156.356 24.8806C154.515 25.6845 152.728 26.598 151.003 27.6407C149.268 28.6918 147.553 29.8205 146.124 31.2723C139.565 37.9141 139.988 48.1034 141.791 56.5904C142.012 57.6142 142.252 58.6401 142.511 59.6586C142.671 60.2796 143.197 60.7415 143.869 60.6339C144.476 60.5193 145.016 59.8787 144.856 59.2576Z" fill="#070606"/>
<path d="M70.3684 148.26C75.9384 144.787 127.288 107.446 132.64 103.629C133.886 102.743 132.392 100.913 131.156 101.791C125.805 105.599 74.4454 142.948 68.8848 146.422C68.3391 146.76 68.3409 147.628 68.7076 148.083C69.1503 148.621 69.8227 148.598 70.3684 148.26Z" fill="black"/>
<path d="M133.826 79.7672C132.428 82.4302 131.745 85.4714 131.345 88.4294C130.914 91.5824 130.826 94.8003 131.063 97.968C131.179 99.4524 131.369 100.935 131.716 102.378C131.867 102.998 132.412 103.462 133.074 103.354C133.67 103.257 134.201 102.615 134.05 101.995C133.429 99.4093 133.256 96.7014 133.294 94.0444C133.333 91.0195 133.624 87.9366 134.39 85.008C134.787 83.4934 135.303 82.0197 136.026 80.6342C136.322 80.0713 135.912 79.3198 135.36 79.1004C134.707 78.8515 134.122 79.2043 133.826 79.7672Z" fill="black"/>
<path d="M136.005 79.7724C136.538 75.9319 137.07 72.0914 137.612 68.252C137.843 66.6158 138.077 64.8667 138.938 63.4298C139.568 62.3836 140.614 61.4288 141.864 61.298C144.403 61.0216 145.974 64.256 146.729 66.2049C147.603 68.4496 148.144 70.8005 148.695 73.1617C149.304 75.7651 149.817 78.3865 150.417 80.989C150.559 81.608 151.113 82.0729 151.776 81.9643C152.38 81.8684 152.891 81.2341 152.751 80.6057C152.177 78.1099 151.681 75.5941 151.108 73.0983C150.495 70.4379 149.87 67.7195 148.868 65.1686C147.807 62.4605 145.779 59.1866 142.569 58.9292C140.838 58.7917 139.187 59.5875 138 60.8103C136.695 62.162 136.049 63.886 135.648 65.6928C135.156 67.9146 134.949 70.2138 134.632 72.4731C134.307 74.8164 133.98 77.169 133.655 79.5122C133.445 81.0374 135.797 81.2789 136.005 79.7724Z" fill="black"/>
<path d="M207.31 122.191C209.583 126 212.077 129.692 214.717 133.257C217.149 136.546 219.686 139.836 222.67 142.645C223.605 143.528 224.737 144.593 226.022 144.928C226.637 145.088 227.298 144.904 227.556 144.261C227.765 143.717 227.513 142.888 226.889 142.727C226.696 142.679 226.516 142.593 226.326 142.516C226.038 142.391 226.484 142.628 226.255 142.481C226.131 142.401 226.006 142.331 225.892 142.253C225.364 141.895 224.87 141.484 224.397 141.056C223.898 140.597 223.386 140.089 222.82 139.472C222.177 138.78 221.553 138.082 220.941 137.356C218.133 134.046 215.565 130.526 213.135 126.945C211.854 125.063 210.613 123.156 209.461 121.222C209.132 120.677 208.526 120.348 207.901 120.631C207.366 120.866 206.982 121.637 207.31 122.191Z" fill="black"/>
<path d="M157.604 103.213C159.154 107.001 160.912 110.775 163.373 114.066C165.471 116.866 168.141 119.35 171.652 120.055C174.729 120.666 178.025 120.282 181.083 119.749C184.659 119.13 188.16 118.155 191.61 117.041C194.67 116.046 197.715 114.927 200.633 113.578C202.013 112.942 201.045 110.781 199.664 111.427C194.185 113.956 188.309 115.877 182.413 117.098C179.355 117.725 176.275 118.198 173.268 117.906C172.96 117.873 172.652 117.84 172.346 117.789C172.198 117.763 172.05 117.738 171.901 117.713C171.818 117.695 171.34 117.577 171.569 117.64C171.009 117.495 170.484 117.288 169.963 117.044C169.918 117.02 169.757 116.937 169.98 117.055C169.91 117.01 169.829 116.973 169.758 116.927C169.572 116.813 169.386 116.699 169.211 116.577C168.797 116.296 168.404 116 168.023 115.676C167.313 115.081 166.678 114.4 166.074 113.694C163.251 110.345 161.382 106.277 159.745 102.252C159.189 100.834 157.038 101.803 157.604 103.213Z" fill="#070606"/>
<path d="M149.686 81.9C152.569 83.8872 154.488 86.8662 155.787 90.0811C157.182 93.5421 158.044 97.3993 157.806 101.139C157.672 103.276 157.152 105.41 156.048 107.264C155.725 107.815 155.746 108.506 156.297 108.914C156.769 109.266 157.624 109.216 157.947 108.665C160.226 104.813 160.558 100.291 159.851 95.9407C159.207 91.9841 157.835 88.0442 155.626 84.6852C154.424 82.8584 152.89 81.2321 151.088 79.9924C149.84 79.1326 148.439 81.0309 149.686 81.9Z" fill="black"/>
<path d="M213.677 79.4023C214.404 78.8665 215.149 78.3421 215.925 77.8775C216.329 77.6281 216.75 77.3993 217.178 77.1902C217.346 77.1138 217.525 77.0291 217.71 76.9734C217.448 77.0491 217.71 76.9734 217.767 76.97C217.891 76.9643 217.987 76.9463 218.108 76.9592C219.151 77.0044 220.041 77.8636 220.453 78.7758C220.948 79.8855 220.747 81.1474 220.292 82.2312C219.294 84.5971 217.068 86.3602 214.701 87.2306C213.483 87.6763 211.947 88.0125 210.702 87.474C209.845 87.0995 209.28 86.2938 209.045 85.4005C208.328 82.6629 210.676 80.5543 213.051 79.7791C213.658 79.5796 213.887 78.7548 213.643 78.2191C213.361 77.5852 212.689 77.4285 212.083 77.6281C208.964 78.6448 206.375 81.4166 206.576 84.8446C206.666 86.3829 207.375 87.874 208.533 88.8751C209.924 90.0804 211.885 90.2707 213.636 89.9574C216.937 89.3564 220.152 87.2554 221.861 84.333C222.784 82.7519 223.35 80.8967 223.008 79.0578C222.701 77.4303 221.658 75.9696 220.205 75.1729C218.717 74.3536 217.192 74.4929 215.731 75.2713C214.5 75.9326 213.312 76.7212 212.194 77.555C210.972 78.4816 212.457 80.3102 213.677 79.4023Z" fill="black"/>
<path d="M215.986 89.956C216.685 89.6815 217.401 89.4276 218.122 89.2213C218.53 89.1045 218.949 88.9887 219.371 88.9205C219.458 88.9015 219.942 88.8776 219.66 88.8664C219.829 88.875 219.977 88.9003 220.141 88.9555C220.904 89.2351 221.383 90.0505 221.509 90.8188C221.669 91.7984 221.246 92.7536 220.654 93.5209C219.317 95.2655 217.055 96.2132 214.904 96.3895C213.086 96.5352 210.932 96.0224 210.862 93.8539C210.778 91.4482 213.255 90.2592 215.324 90.1496C215.96 90.1137 216.397 89.3771 216.299 88.791C216.184 88.0993 215.586 87.7807 214.941 87.8157C212.018 87.9663 209.152 89.8026 208.587 92.7997C208.34 94.1417 208.62 95.587 209.416 96.7005C210.31 97.966 211.85 98.5644 213.344 98.7143C216.387 99.0201 219.706 97.902 221.847 95.6959C223.902 93.5937 224.801 90.1226 222.53 87.7949C221.467 86.7001 220.129 86.3308 218.652 86.6357C217.407 86.8992 216.183 87.316 215.001 87.7843C213.599 88.3614 214.568 90.5125 215.986 89.956Z" fill="black"/>
<path d="M224.021 109.034C222.547 106.838 221.536 103.748 222.805 101.232C224.002 98.8592 226.863 97.9566 229.352 98.3353C230.838 98.5598 232.201 99.2243 233.376 100.152C234.272 100.861 235.739 99.7621 235.152 98.7181C234.44 97.4343 233.899 95.8668 234.615 94.4616C235.258 93.2091 236.854 92.3131 238.196 92.0316C240.735 91.5003 242.7 93.248 244.686 94.6206C245.767 95.3682 247.198 93.9827 246.31 92.9255C245.85 92.3763 245.38 91.826 244.941 91.2601C244.767 91.0339 244.584 90.7974 244.42 90.5629C244.356 90.4617 244.282 90.3594 244.217 90.2581C244.338 90.4503 244.17 90.1682 244.163 90.1485C244.124 90.0689 244.086 89.98 244.048 89.9003C243.986 89.7711 243.879 89.7125 244.029 89.8984C244.004 89.8674 243.99 89.7338 243.994 89.6965C243.983 90.0633 243.992 89.8944 244 89.8197C244.022 89.5202 243.914 90.0937 244.039 89.7201C243.937 90.049 244.067 89.7231 244.164 89.6014C243.947 89.8707 244.331 89.4587 244.414 89.3827C244.548 89.2744 244.682 89.1753 244.815 89.0763C245.08 88.8876 244.605 89.186 244.886 89.0273C244.967 88.9793 245.057 88.9323 245.136 88.8936C245.306 88.8079 245.474 88.7408 245.65 88.6747C245.936 88.5637 245.408 88.7338 245.709 88.6527C245.796 88.6337 245.884 88.6053 245.981 88.5873C246.135 88.5566 246.279 88.5342 246.432 88.5128C246.527 88.5041 246.613 88.4944 246.709 88.4857C247.023 88.4625 246.445 88.4765 246.766 88.4823C246.954 88.4835 247.142 88.4941 247.338 88.515C247.534 88.5359 247.729 88.5662 247.913 88.6047C247.913 88.6047 248.236 88.6769 248.052 88.629C247.868 88.5904 248.19 88.6626 248.19 88.6626C248.593 88.781 248.993 88.9181 249.382 89.0822C250.275 89.4606 250.737 89.7363 251.546 90.2851C253.193 91.3949 254.683 92.7241 256.001 94.0819C257.421 95.5451 258.746 97.1019 259.979 98.7244C260.525 99.4432 261.06 100.18 261.574 100.933C261.795 101.249 262.006 101.573 262.216 101.898C262.305 102.039 262.395 102.172 262.474 102.312C262.643 102.585 262.354 102.111 262.515 102.373C262.579 102.474 262.635 102.575 262.699 102.676C264.817 106.271 265.961 110.497 266.542 114.598C267.26 119.638 267.175 125.65 263.662 129.654C263.243 130.137 263.43 130.95 263.911 131.303C264.462 131.711 265.141 131.538 265.56 131.055C269.136 126.991 269.564 121.036 269.066 115.887C268.808 113.17 268.235 110.495 267.437 107.89C266.836 105.92 266.112 103.946 265.096 102.148C263.169 98.7156 260.66 95.5226 257.922 92.7016C256.392 91.1229 254.76 89.6182 252.929 88.3848C251.344 87.3193 249.564 86.4028 247.654 86.1708C245.642 85.9278 243.558 86.6208 242.222 88.1768C240.421 90.2779 243.137 92.8607 244.427 94.3948C244.968 93.8298 245.51 93.2647 246.051 92.6997C244.768 91.8173 243.541 90.8466 242.108 90.2125C240.468 89.4902 238.688 89.3664 236.98 89.9013C235.047 90.5066 233.132 91.8216 232.316 93.7256C231.476 95.6743 231.977 97.8792 232.966 99.6644C233.554 99.1894 234.153 98.7059 234.742 98.2308C232.036 96.0832 228.36 95.2476 225.058 96.3863C223.461 96.9425 221.964 98.0568 221.047 99.4877C220.051 101.042 219.717 102.847 219.891 104.668C220.081 106.773 220.983 108.757 222.147 110.495C222.506 111.024 223.343 111.047 223.808 110.672C224.38 110.261 224.379 109.563 224.021 109.034Z" fill="black"/>
<path d="M197.689 107.288C190.458 109.876 181.996 112.512 174.469 109.557C172.205 108.665 170.535 107.43 169.046 105.638C167.61 103.89 166.4 101.959 165.289 99.9907C162.315 94.7004 159.964 89.052 157.891 83.3577C155.599 77.0645 153.673 70.6215 152.209 64.0863C150.98 58.6236 149.933 52.9632 150.022 47.3486C150.053 45.0211 150.297 42.7352 151.434 40.6578C152.758 38.2418 154.886 36.3362 157.161 34.8237C162.374 31.3409 168.836 29.5013 175.061 29.0896C177.817 28.9024 180.703 29.0121 183.378 29.7599C185.76 30.4292 187.766 31.7095 189.44 33.53C191.393 35.654 192.859 38.1883 194.083 40.7818C195.454 43.6741 196.537 46.7054 197.485 49.7602C199.159 55.2043 200.319 60.7824 201.499 66.3531C201.68 67.2217 201.871 68.0912 202.081 68.9535C202.289 69.8344 203.69 69.6158 203.483 68.7256C202.267 63.6701 201.36 58.5437 200.029 53.5136C198.371 47.288 196.352 40.92 192.777 35.509C191.298 33.2752 189.459 31.1445 187.122 29.7818C184.795 28.4201 182.052 27.8632 179.383 27.6728C172.939 27.2213 166.179 28.6705 160.355 31.4275C155.276 33.8299 149.895 37.8326 148.897 43.7371C148.507 46.0734 148.586 48.5165 148.74 50.8732C148.93 53.781 149.347 56.6847 149.862 59.5517C151.082 66.2497 152.879 72.8487 155.021 79.3053C157.076 85.5166 159.45 91.6582 162.392 97.5113C163.576 99.8646 164.867 102.182 166.352 104.36C167.445 105.967 168.663 107.551 170.183 108.779C173.146 111.171 177.233 112.136 180.969 112.232C185.203 112.344 189.385 111.45 193.421 110.23C195.06 109.734 196.677 109.171 198.295 108.598C199.132 108.272 198.543 106.982 197.689 107.288Z" fill="#070606"/>
<path d="M204.954 80.5091C206.024 84.9829 206.658 89.5706 206.893 94.1724C206.938 95.083 208.341 94.8458 208.295 93.9445C208.059 89.352 207.434 84.7654 206.356 80.2812C206.138 79.3993 204.737 79.6179 204.954 80.5091Z" fill="black"/>
<path d="M225.655 144.661C229.537 151.087 233.895 157.204 237.767 163.628C238.906 165.514 240.004 167.424 241.033 169.374C241.739 170.714 243.898 169.755 243.184 168.405C239.389 161.159 234.714 154.385 230.264 147.541C229.794 146.811 229.316 146.081 228.846 145.351C228.644 145.037 228.451 144.724 228.248 144.41C228.151 144.258 228.055 144.097 227.958 143.945C227.87 143.794 228.054 144.106 227.965 143.964C227.909 143.873 227.862 143.783 227.805 143.702C227.476 143.157 226.869 142.828 226.245 143.111C225.72 143.338 225.327 144.108 225.655 144.661Z" fill="black"/>
<path d="M265.483 128.603C270.289 135.74 276.45 141.851 281.678 148.665C282.605 149.878 284.444 148.385 283.515 147.182C278.288 140.368 272.136 134.257 267.321 127.119C266.962 126.59 266.125 126.567 265.66 126.942C265.132 127.376 265.124 128.074 265.483 128.603Z" fill="black"/>
<path d="M214.022 98.4667C214.012 98.6449 213.985 98.8119 213.939 98.9768C213.959 98.8752 213.989 98.7746 214.009 98.6729C213.944 98.9302 213.841 99.1835 213.713 99.4151C213.76 99.3258 213.807 99.2365 213.864 99.1482C213.736 99.3705 213.591 99.5814 213.412 99.7605C213.485 99.6928 213.55 99.6148 213.623 99.5471C213.57 99.6074 213.508 99.6575 213.445 99.7168C213.215 99.9282 213.045 100.193 213.011 100.51C212.98 100.8 213.074 101.159 213.268 101.378C213.47 101.607 213.743 101.787 214.061 101.811C214.361 101.834 214.698 101.766 214.928 101.555C215.377 101.15 215.708 100.704 215.974 100.156C216.059 99.9768 216.135 99.7962 216.184 99.6032C216.262 99.3096 216.332 99.0151 216.354 98.7155C216.378 98.4066 216.298 98.0961 216.097 97.8483C215.914 97.6211 215.594 97.436 215.304 97.4145C214.995 97.391 214.676 97.4607 214.437 97.6711C214.225 97.8845 214.045 98.1578 214.022 98.4667Z" fill="black"/>
<path d="M203.707 69.886C205.602 67.6064 207.785 64.7441 210.84 64.0603C213.479 63.4736 216.094 64.7906 216.774 67.4393C217.66 70.8932 215.221 74.3887 212.821 76.624C210.527 78.7572 206.961 80.4339 203.977 78.5963C201.038 76.773 201.618 72.579 203.592 70.2606C204.002 69.776 203.834 68.9653 203.343 68.611C202.801 68.2134 202.104 68.375 201.694 68.8597C199.311 71.6441 198.616 76.4769 201.235 79.3513C202.62 80.8767 204.666 81.6895 206.711 81.7095C208.927 81.7289 210.963 80.9552 212.766 79.7038C214.551 78.4598 216.12 76.7494 217.305 74.9319C218.547 73.0167 219.384 70.8318 219.301 68.5204C219.166 64.8258 216.266 61.676 212.505 61.5485C207.794 61.3857 204.551 65.1634 201.801 68.4748C200.835 69.6551 202.744 71.0477 203.707 69.886Z" fill="black"/>
<path d="M209.17 120.944C206.346 116.368 203.086 112.075 200.373 107.436C199.127 105.312 197.995 103.096 197.197 100.765C196.571 98.9337 196.097 96.9204 196.349 95.0883C196.376 94.9213 196.404 94.745 196.441 94.5791C196.388 94.8094 196.514 94.3415 196.54 94.2688C196.582 94.1412 196.633 94.0146 196.684 93.8972C196.72 93.8256 196.756 93.7539 196.792 93.6823C196.828 93.6013 196.816 93.6283 196.757 93.7446C196.791 93.6916 196.825 93.6386 196.858 93.5856C196.925 93.489 196.993 93.383 197.069 93.2966C197.113 93.2353 197.165 93.1843 197.209 93.1323C197.326 93.0033 197 93.3177 197.218 93.1333C197.321 93.0499 197.415 92.9656 197.519 92.8822C197.57 92.8406 197.631 92.7999 197.692 92.7592C197.53 92.8646 197.612 92.7979 197.731 92.7445C197.851 92.6818 197.961 92.6275 198.088 92.5844C198.158 92.5541 198.548 92.4353 198.256 92.5174C198.557 92.4363 198.855 92.3831 199.169 92.36C199.235 92.3576 199.292 92.3543 199.36 92.3426C199.673 92.3195 199.19 92.3433 199.388 92.3456C199.538 92.3522 199.689 92.3494 199.839 92.356C200.196 92.3752 200.549 92.4317 200.891 92.4965C200.983 92.5158 201.075 92.5351 201.158 92.5534C201.37 92.6042 200.883 92.4768 201.232 92.5707C201.378 92.6146 201.535 92.6502 201.68 92.7034C202.064 92.8198 202.445 92.9643 202.816 93.117C203.619 93.4576 204.217 93.7762 204.907 94.2083C206.773 95.3887 208.391 96.939 210.006 98.4231C214.166 102.245 217.966 106.425 221.789 110.579C222.22 111.05 222.933 111.173 223.449 110.756C223.924 110.373 224.058 109.566 223.627 109.095C219.931 105.078 216.247 101.052 212.257 97.3138C209.255 94.5022 206.093 91.4095 201.979 90.3478C200.454 89.9587 198.855 89.8164 197.346 90.3443C195.984 90.8124 194.925 91.8978 194.396 93.2286C193.685 95.0305 193.86 97.1063 194.256 98.9605C194.797 101.5 195.803 103.919 196.994 106.207C199.962 111.903 203.96 116.981 207.322 122.436C207.66 122.981 208.529 122.979 208.983 122.613C209.541 122.163 209.509 121.489 209.17 120.944Z" fill="black"/>
<rect x="17" y="145" width="347" height="46" rx="10" fill="black"/>
<path d="M124.232 174.168C123.569 174.168 122.953 174.047 122.384 173.804C121.824 173.561 121.339 173.225 120.928 172.796C120.527 172.357 120.233 171.849 120.046 171.27L121.628 170.584C121.88 171.181 122.244 171.653 122.72 171.998C123.196 172.334 123.733 172.502 124.33 172.502C124.666 172.502 124.955 172.451 125.198 172.348C125.45 172.236 125.641 172.087 125.772 171.9C125.912 171.713 125.982 171.489 125.982 171.228C125.982 170.92 125.889 170.668 125.702 170.472C125.525 170.267 125.254 170.108 124.89 169.996L122.888 169.352C122.076 169.1 121.465 168.722 121.054 168.218C120.643 167.714 120.438 167.121 120.438 166.44C120.438 165.843 120.583 165.315 120.872 164.858C121.171 164.401 121.581 164.046 122.104 163.794C122.636 163.533 123.243 163.402 123.924 163.402C124.549 163.402 125.123 163.514 125.646 163.738C126.169 163.953 126.617 164.256 126.99 164.648C127.373 165.031 127.657 165.483 127.844 166.006L126.276 166.706C126.071 166.183 125.763 165.782 125.352 165.502C124.941 165.213 124.465 165.068 123.924 165.068C123.607 165.068 123.327 165.124 123.084 165.236C122.841 165.339 122.65 165.488 122.51 165.684C122.379 165.871 122.314 166.095 122.314 166.356C122.314 166.645 122.407 166.902 122.594 167.126C122.781 167.341 123.065 167.509 123.448 167.63L125.366 168.232C126.197 168.503 126.817 168.876 127.228 169.352C127.648 169.828 127.858 170.416 127.858 171.116C127.858 171.713 127.704 172.241 127.396 172.698C127.088 173.155 126.663 173.515 126.122 173.776C125.581 174.037 124.951 174.168 124.232 174.168ZM131.7 174V165.25H128.998V163.57H136.278V165.25H133.618V174H131.7ZM136.169 174L139.767 163.57H142.231L145.829 174H143.757L143.015 171.76H138.983L138.227 174H136.169ZM139.529 170.08H142.469L140.733 164.886H141.265L139.529 170.08ZM147.27 174V163.57H151.148C151.857 163.57 152.483 163.701 153.024 163.962C153.575 164.214 154.004 164.587 154.312 165.082C154.62 165.567 154.774 166.16 154.774 166.86C154.774 167.579 154.601 168.19 154.256 168.694C153.92 169.198 153.463 169.571 152.884 169.814L155.278 174H153.122L150.56 169.422L151.792 170.15H149.174V174H147.27ZM149.174 168.47H151.176C151.521 168.47 151.82 168.405 152.072 168.274C152.324 168.134 152.52 167.943 152.66 167.7C152.8 167.457 152.87 167.177 152.87 166.86C152.87 166.533 152.8 166.253 152.66 166.02C152.52 165.777 152.324 165.591 152.072 165.46C151.82 165.32 151.521 165.25 151.176 165.25H149.174V168.47ZM158.38 174V165.25H155.678V163.57H162.958V165.25H160.298V174H158.38ZM167.168 174V163.57H168.652L174.392 171.298L173.622 171.452V163.57H175.526V174H174.028L168.372 166.216L169.072 166.062V174H167.168ZM177.825 174V163.57H184.783V165.25H179.729V168.134H184.153V169.814H179.729V174H177.825ZM191.072 174.168C190.325 174.168 189.634 174.033 189 173.762C188.374 173.491 187.824 173.113 187.348 172.628C186.881 172.143 186.517 171.573 186.256 170.92C185.994 170.267 185.864 169.553 185.864 168.778C185.864 168.003 185.99 167.289 186.242 166.636C186.503 165.973 186.867 165.404 187.334 164.928C187.81 164.443 188.365 164.069 189 163.808C189.634 163.537 190.325 163.402 191.072 163.402C191.818 163.402 192.486 163.528 193.074 163.78C193.671 164.032 194.175 164.368 194.586 164.788C194.996 165.199 195.29 165.651 195.468 166.146L193.76 166.944C193.564 166.421 193.232 165.992 192.766 165.656C192.299 165.311 191.734 165.138 191.072 165.138C190.418 165.138 189.84 165.292 189.336 165.6C188.841 165.908 188.454 166.333 188.174 166.874C187.903 167.415 187.768 168.05 187.768 168.778C187.768 169.506 187.903 170.145 188.174 170.696C188.454 171.237 188.841 171.662 189.336 171.97C189.84 172.278 190.418 172.432 191.072 172.432C191.734 172.432 192.299 172.264 192.766 171.928C193.232 171.583 193.564 171.149 193.76 170.626L195.468 171.424C195.29 171.919 194.996 172.376 194.586 172.796C194.175 173.207 193.671 173.538 193.074 173.79C192.486 174.042 191.818 174.168 191.072 174.168ZM200.062 174V163.57H201.882L205.788 168.876H204.92L208.742 163.57H210.562V174H208.644V165.74L209.386 165.922L205.424 171.2H205.2L201.336 165.922L201.966 165.74V174H200.062ZM212.838 174V163.57H214.742V174H212.838ZM217.028 174V163.57H218.512L224.252 171.298L223.482 171.452V163.57H225.386V174H223.888L218.232 166.216L218.932 166.062V174H217.028ZM229.533 174V165.25H226.831V163.57H234.111V165.25H231.451V174H229.533ZM235.553 174V163.57H237.457V174H235.553ZM239.743 174V163.57H241.227L246.967 171.298L246.197 171.452V163.57H248.101V174H246.603L240.947 166.216L241.647 166.062V174H239.743ZM255.342 174.168C254.595 174.168 253.905 174.033 253.27 173.762C252.635 173.491 252.08 173.113 251.604 172.628C251.128 172.143 250.755 171.573 250.484 170.92C250.223 170.267 250.092 169.553 250.092 168.778C250.092 168.003 250.218 167.289 250.47 166.636C250.731 165.973 251.095 165.404 251.562 164.928C252.038 164.443 252.593 164.069 253.228 163.808C253.863 163.537 254.553 163.402 255.3 163.402C256.047 163.402 256.714 163.528 257.302 163.78C257.899 164.032 258.403 164.368 258.814 164.788C259.225 165.199 259.519 165.651 259.696 166.146L258.002 166.958C257.806 166.417 257.475 165.978 257.008 165.642C256.541 165.306 255.972 165.138 255.3 165.138C254.647 165.138 254.068 165.292 253.564 165.6C253.069 165.908 252.682 166.333 252.402 166.874C252.131 167.415 251.996 168.05 251.996 168.778C251.996 169.506 252.136 170.145 252.416 170.696C252.705 171.237 253.102 171.662 253.606 171.97C254.11 172.278 254.689 172.432 255.342 172.432C255.874 172.432 256.364 172.329 256.812 172.124C257.26 171.909 257.619 171.611 257.89 171.228C258.161 170.836 258.296 170.374 258.296 169.842V169.044L259.164 169.8H255.3V168.19H260.2V169.24C260.2 170.043 260.065 170.752 259.794 171.368C259.523 171.984 259.155 172.502 258.688 172.922C258.231 173.333 257.713 173.645 257.134 173.86C256.555 174.065 255.958 174.168 255.342 174.168Z" fill="white"/>
<path d="M167.595 62.7602C169.501 55.9041 179.249 49.2137 189.275 56.9508" stroke="#161616" stroke-width="2" stroke-linecap="round"/>
<path d="M171.565 63.9738C172.828 59.1028 179.49 54.4048 186.444 59.987" stroke="#161616" stroke-width="2" stroke-linecap="round"/>
<path d="M175.224 65.7304C175.914 62.8261 179.7 60.0639 183.727 63.4522" stroke="#161616" stroke-width="2" stroke-linecap="round"/>
<path d="M173.807 76.5885L172.109 70.2544L173.121 69.9833L177.723 73.5527L177.213 73.826L175.978 69.2178L177.296 68.8647L178.993 75.1989L177.973 75.4722L173.422 71.8529L173.881 71.5932L175.124 76.2354L173.807 76.5885Z" fill="#161616"/>
<path d="M180.287 74.8521L178.59 68.518L182.926 67.3561L183.233 68.5039L180.215 69.3127L180.646 70.9196L183.239 70.2247L183.546 71.3725L180.953 72.0674L181.605 74.499L180.287 74.8521Z" fill="#161616"/>
<path d="M188.401 72.7873C187.948 72.9088 187.503 72.9398 187.068 72.8802C186.639 72.8191 186.24 72.6799 185.872 72.4626C185.504 72.2453 185.184 71.9603 184.914 71.6076C184.649 71.2533 184.453 70.841 184.327 70.3705C184.201 69.9001 184.164 69.4452 184.217 69.0059C184.268 68.5609 184.399 68.1552 184.61 67.7887C184.821 67.4164 185.097 67.0994 185.44 66.8374C185.787 66.5682 186.19 66.3721 186.649 66.2491C187.108 66.1261 187.54 66.0925 187.944 66.1483C188.353 66.2026 188.719 66.3231 189.043 66.5099C189.366 66.6966 189.624 66.9314 189.815 67.2143L188.8 68.0875C188.611 67.8103 188.353 67.609 188.028 67.4835C187.707 67.3508 187.354 67.3361 186.968 67.4394C186.594 67.5396 186.289 67.7156 186.053 67.9672C185.816 68.2189 185.66 68.5218 185.585 68.8761C185.514 69.2232 185.534 69.6036 185.645 70.0174C185.756 70.4312 185.93 70.7734 186.166 71.0442C186.408 71.3134 186.695 71.4979 187.025 71.5977C187.356 71.6975 187.708 71.6972 188.082 71.597C188.468 71.4937 188.767 71.3072 188.98 71.0374C189.198 70.7605 189.319 70.4545 189.345 70.1196L190.66 70.3686C190.636 70.7092 190.53 71.0412 190.344 71.3646C190.157 71.6881 189.9 71.9756 189.572 72.2274C189.251 72.4776 188.86 72.6643 188.401 72.7873Z" fill="#161616"/>
</svg>
