<svg width="133" height="133" viewBox="0 0 133 133" fill="none" xmlns="http://www.w3.org/2000/svg">
<circle opacity="0.1" cx="66.5" cy="66.5" r="66.5" fill="white"/>
<path d="M97.0222 55.3113V78.6811C97.0222 82.5078 94.9722 86.0613 91.6581 88.0088L71.3631 99.7279C68.0489 101.641 63.9489 101.641 60.6006 99.7279L40.3056 88.0088C36.9914 86.0954 34.9414 82.542 34.9414 78.6811V55.3113C34.9414 51.4846 36.9914 47.9311 40.3056 45.9836L60.6006 34.2645C63.9147 32.3511 68.0147 32.3511 71.3631 34.2645L91.6581 45.9836C94.9722 47.9311 97.0222 51.4504 97.0222 55.3113Z" stroke="#DDF247" stroke-width="4" stroke-linecap="round" stroke-linejoin="round"/>
<path d="M66.0058 63.5884C70.4024 63.5884 73.9666 60.0242 73.9666 55.6276C73.9666 51.2309 70.4024 47.6669 66.0058 47.6669C61.6091 47.6669 58.0449 51.2309 58.0449 55.6276C58.0449 60.0242 61.6091 63.5884 66.0058 63.5884Z" stroke="#DDF247" stroke-width="4" stroke-linecap="round" stroke-linejoin="round"/>
<path d="M79.6693 82.9314C79.6693 76.7814 73.5534 71.7932 66.0026 71.7932C58.4518 71.7932 52.3359 76.7814 52.3359 82.9314" stroke="#DDF247" stroke-width="4" stroke-linecap="round" stroke-linejoin="round"/>
</svg>
