<svg width="149" height="190" viewBox="0 0 149 190" fill="none" xmlns="http://www.w3.org/2000/svg">
<g opacity="0.9">
<mask id="path-1-inside-1_115_6854" fill="white">
<path fill-rule="evenodd" clip-rule="evenodd" d="M51.6273 0.350674C48.594 0.980662 46.0333 2.47353 44.1504 4.70864C41.1661 8.25091 40.8881 9.66674 40.8881 21.3218V32.1301L39.5457 31.6417C38.8077 31.3736 36.278 31.1538 33.9249 31.1538C30.1841 31.1538 29.4455 31.3413 28.0512 32.6467C24.3766 36.0856 24.2036 37.5648 26.0209 50.0123C27.0638 57.1547 27.2266 60.6271 27.0357 71.7066C26.8185 84.3421 26.7404 85.0778 25.1814 89.194C21.1172 99.9241 21.0564 100.445 20.6047 128.489C20.1931 154.051 20.1847 154.187 18.6275 158.943C16.7237 164.757 13.5556 169.689 6.46598 177.874C0.0606513 185.269 -0.55566 186.271 0.310635 187.891C1.17633 189.511 2.97932 190.377 4.37184 189.842C5.898 189.256 18.0476 175.017 20.5564 170.874C21.6351 169.093 23.1756 166.005 23.9798 164.012C26.7839 157.065 27.1658 153.023 27.1658 130.306C27.1658 106.478 27.5518 102.855 31.1614 92.8115L33.3617 86.6883L33.5896 71.6928C33.7871 58.7049 33.6469 55.5221 32.5413 47.9145C31.0605 37.7248 31.221 37.09 35.1438 37.6167C36.4415 37.7911 38.1979 38.4521 39.0463 39.0869L40.5898 40.24L40.8881 96.9515L41.1864 153.663L42.9852 156.575C44.2954 158.695 45.6527 159.941 47.9759 161.156L51.1667 162.824H71.1589C93.5238 162.824 93.7303 162.878 85.1461 166.441C77.0338 169.807 75.9092 170.584 68.4818 177.951C60.9256 185.445 59.8732 187.275 62.0699 189.101C64.2816 190.937 65.8806 190.04 73.0221 182.956C79.6983 176.333 80.221 175.953 86.5296 173.147C90.1392 171.542 95.4229 168.562 98.2718 166.526L103.451 162.824L110.801 162.811C116.666 162.801 118.643 162.574 120.587 161.69C123.524 160.356 126.556 157.263 127.525 154.614C128.007 153.296 128.627 152.669 129.457 152.66C131.962 152.633 135.571 150.322 139.486 146.236C147.342 138.039 147.851 132.117 141.271 125.474L138.877 123.056L141.285 120.398C147.27 113.793 147.273 107.476 141.295 101.493L138.977 99.1729L141.816 95.7655C144.882 92.0853 146.202 88.5216 145.683 85.3209C145.196 82.3184 142.513 78.1545 139.901 76.347C138.628 75.4662 137.576 74.4696 137.563 74.1322C137.551 73.7948 139.44 71.6451 141.761 69.355C147.31 63.8798 148.967 61.0499 149 56.9935C149.041 51.7392 146.297 47.2678 141.885 45.4017C139.34 44.3251 133.494 44.3734 131.357 45.4889C130.417 45.9797 129.411 46.381 129.12 46.381C128.825 46.381 128.591 38.4623 128.591 28.4476C128.591 13.5852 128.433 10.1337 127.665 8.2939C126.49 5.47776 124.179 3.03604 121.134 1.3909C118.779 0.118981 118.32 0.101067 86.2313 0.00970402C68.3476 -0.0410533 52.7758 0.112413 51.6273 0.350674ZM65.4182 13.0902C67.103 16.4569 68.7837 19.4086 69.153 19.6498C70.0295 20.2225 99.4501 20.2225 100.327 19.6498C100.696 19.4086 102.377 16.4569 104.061 13.0902L107.124 6.96943H112.479C117.552 6.96943 117.936 7.06079 119.782 8.7119L121.73 10.4538L121.894 45.2046L122.057 79.9555L119.611 82.6116C116.631 85.8476 115.466 88.4869 115.466 92.0047C115.466 95.6742 116.196 97.2912 119.401 100.721L122.16 103.673L119.629 106.526C116.528 110.024 115.466 112.412 115.466 115.891C115.466 119.627 116.314 121.498 119.464 124.716L122.202 127.511L119.65 130.389C116.515 133.924 115.466 136.292 115.466 139.834C115.466 143.357 116.589 145.903 119.273 148.461C121.907 150.972 121.963 151.94 119.603 154.203L117.775 155.957L85.5685 156.121C57.038 156.267 53.1325 156.177 51.348 155.329C49.2605 154.338 47.4509 151.439 47.4509 149.085C47.4509 148.034 47.6615 147.871 48.495 148.28C50.187 149.109 106.489 149.259 107.479 148.437C108.606 147.5 108.521 144.943 107.319 143.614C106.391 142.587 104.738 142.521 79.5462 142.521C50.1441 142.521 50.2001 142.528 48.3476 138.943C47.5422 137.383 47.4533 129.732 47.5923 73.8145L47.7492 10.4544L49.6978 8.7119C51.5437 7.06079 51.9274 6.96943 57.001 6.96943H62.3557L65.4182 13.0902ZM99.357 7.28771C99.357 7.46327 98.681 8.94121 97.8553 10.572L96.3536 13.538H84.8537H73.3544L71.7448 10.2537L70.1357 6.96943H84.7463C92.7822 6.96943 99.357 7.11275 99.357 7.28771ZM140.57 52.9036C141.869 54.2036 142.314 55.2128 142.314 56.8579C142.314 58.8046 141.758 59.643 137.635 63.9204C135.062 66.5896 132.147 69.6476 131.157 70.7147C130.167 71.7818 129.185 72.6554 128.975 72.6554C128.764 72.6554 128.591 69.1042 128.591 64.7635V56.8723L131.403 54.0149C133.797 51.5822 134.557 51.1582 136.52 51.1582C138.273 51.1582 139.244 51.5768 140.57 52.9036ZM75.3698 40.2925C66.266 42.2942 54.821 48.6633 54.821 51.7285C54.821 52.6672 57.439 55.5012 58.3064 55.5012C58.6131 55.5012 60.289 54.5201 62.0312 53.3205C76.1556 43.5959 94.6819 43.5732 109.057 53.2625C112.493 55.5783 113.999 55.6009 115.466 53.3605C116.848 51.2501 115.996 49.8319 111.616 46.9465C106.953 43.8736 101.056 41.4235 95.4766 40.24C90.5825 39.2015 80.209 39.229 75.3698 40.2925ZM136.626 82.528C138.285 84.1881 138.733 85.1113 138.732 86.8573C138.729 88.7109 138.168 89.7057 135.331 92.8891C130.038 98.8277 127.064 99.4529 123.616 95.3523C120.862 92.0764 121.651 89.849 127.585 84.1505C132.22 79.6993 133.56 79.4593 136.626 82.528ZM77.6424 60.5668C71.169 62.3881 66.1568 65.8814 66.1568 68.5721C66.1568 72.0511 69.0456 72.5754 73.2697 69.8626C76.3566 67.8801 81.8969 66.2498 85.547 66.2498C89.1971 66.2498 94.7374 67.8801 97.8243 69.8626C101.192 72.0254 103.382 72.1353 104.645 70.2047C106.459 67.4352 103.738 64.5802 96.4622 61.6178C91.7423 59.6956 82.5621 59.1832 77.6424 60.5668ZM134.684 104.969C137.021 106.221 138.695 108.693 138.715 110.92C138.731 112.695 138.157 113.697 135.328 116.825C129.999 122.718 127.053 123.326 123.616 119.238C120.862 115.962 121.651 113.735 127.585 108.036C131.56 104.219 132.514 103.807 134.684 104.969ZM136.346 130.349C138.34 132.153 138.734 132.885 138.734 134.794C138.734 136.743 138.238 137.615 135.357 140.731C129.83 146.705 127.287 147.279 123.825 143.334C120.878 139.974 121.557 137.755 127.204 132.291C132.215 127.441 132.955 127.283 136.346 130.349Z"/>
</mask>
<path fill-rule="evenodd" clip-rule="evenodd" d="M51.6273 0.350674C48.594 0.980662 46.0333 2.47353 44.1504 4.70864C41.1661 8.25091 40.8881 9.66674 40.8881 21.3218V32.1301L39.5457 31.6417C38.8077 31.3736 36.278 31.1538 33.9249 31.1538C30.1841 31.1538 29.4455 31.3413 28.0512 32.6467C24.3766 36.0856 24.2036 37.5648 26.0209 50.0123C27.0638 57.1547 27.2266 60.6271 27.0357 71.7066C26.8185 84.3421 26.7404 85.0778 25.1814 89.194C21.1172 99.9241 21.0564 100.445 20.6047 128.489C20.1931 154.051 20.1847 154.187 18.6275 158.943C16.7237 164.757 13.5556 169.689 6.46598 177.874C0.0606513 185.269 -0.55566 186.271 0.310635 187.891C1.17633 189.511 2.97932 190.377 4.37184 189.842C5.898 189.256 18.0476 175.017 20.5564 170.874C21.6351 169.093 23.1756 166.005 23.9798 164.012C26.7839 157.065 27.1658 153.023 27.1658 130.306C27.1658 106.478 27.5518 102.855 31.1614 92.8115L33.3617 86.6883L33.5896 71.6928C33.7871 58.7049 33.6469 55.5221 32.5413 47.9145C31.0605 37.7248 31.221 37.09 35.1438 37.6167C36.4415 37.7911 38.1979 38.4521 39.0463 39.0869L40.5898 40.24L40.8881 96.9515L41.1864 153.663L42.9852 156.575C44.2954 158.695 45.6527 159.941 47.9759 161.156L51.1667 162.824H71.1589C93.5238 162.824 93.7303 162.878 85.1461 166.441C77.0338 169.807 75.9092 170.584 68.4818 177.951C60.9256 185.445 59.8732 187.275 62.0699 189.101C64.2816 190.937 65.8806 190.04 73.0221 182.956C79.6983 176.333 80.221 175.953 86.5296 173.147C90.1392 171.542 95.4229 168.562 98.2718 166.526L103.451 162.824L110.801 162.811C116.666 162.801 118.643 162.574 120.587 161.69C123.524 160.356 126.556 157.263 127.525 154.614C128.007 153.296 128.627 152.669 129.457 152.66C131.962 152.633 135.571 150.322 139.486 146.236C147.342 138.039 147.851 132.117 141.271 125.474L138.877 123.056L141.285 120.398C147.27 113.793 147.273 107.476 141.295 101.493L138.977 99.1729L141.816 95.7655C144.882 92.0853 146.202 88.5216 145.683 85.3209C145.196 82.3184 142.513 78.1545 139.901 76.347C138.628 75.4662 137.576 74.4696 137.563 74.1322C137.551 73.7948 139.44 71.6451 141.761 69.355C147.31 63.8798 148.967 61.0499 149 56.9935C149.041 51.7392 146.297 47.2678 141.885 45.4017C139.34 44.3251 133.494 44.3734 131.357 45.4889C130.417 45.9797 129.411 46.381 129.12 46.381C128.825 46.381 128.591 38.4623 128.591 28.4476C128.591 13.5852 128.433 10.1337 127.665 8.2939C126.49 5.47776 124.179 3.03604 121.134 1.3909C118.779 0.118981 118.32 0.101067 86.2313 0.00970402C68.3476 -0.0410533 52.7758 0.112413 51.6273 0.350674ZM65.4182 13.0902C67.103 16.4569 68.7837 19.4086 69.153 19.6498C70.0295 20.2225 99.4501 20.2225 100.327 19.6498C100.696 19.4086 102.377 16.4569 104.061 13.0902L107.124 6.96943H112.479C117.552 6.96943 117.936 7.06079 119.782 8.7119L121.73 10.4538L121.894 45.2046L122.057 79.9555L119.611 82.6116C116.631 85.8476 115.466 88.4869 115.466 92.0047C115.466 95.6742 116.196 97.2912 119.401 100.721L122.16 103.673L119.629 106.526C116.528 110.024 115.466 112.412 115.466 115.891C115.466 119.627 116.314 121.498 119.464 124.716L122.202 127.511L119.65 130.389C116.515 133.924 115.466 136.292 115.466 139.834C115.466 143.357 116.589 145.903 119.273 148.461C121.907 150.972 121.963 151.94 119.603 154.203L117.775 155.957L85.5685 156.121C57.038 156.267 53.1325 156.177 51.348 155.329C49.2605 154.338 47.4509 151.439 47.4509 149.085C47.4509 148.034 47.6615 147.871 48.495 148.28C50.187 149.109 106.489 149.259 107.479 148.437C108.606 147.5 108.521 144.943 107.319 143.614C106.391 142.587 104.738 142.521 79.5462 142.521C50.1441 142.521 50.2001 142.528 48.3476 138.943C47.5422 137.383 47.4533 129.732 47.5923 73.8145L47.7492 10.4544L49.6978 8.7119C51.5437 7.06079 51.9274 6.96943 57.001 6.96943H62.3557L65.4182 13.0902ZM99.357 7.28771C99.357 7.46327 98.681 8.94121 97.8553 10.572L96.3536 13.538H84.8537H73.3544L71.7448 10.2537L70.1357 6.96943H84.7463C92.7822 6.96943 99.357 7.11275 99.357 7.28771ZM140.57 52.9036C141.869 54.2036 142.314 55.2128 142.314 56.8579C142.314 58.8046 141.758 59.643 137.635 63.9204C135.062 66.5896 132.147 69.6476 131.157 70.7147C130.167 71.7818 129.185 72.6554 128.975 72.6554C128.764 72.6554 128.591 69.1042 128.591 64.7635V56.8723L131.403 54.0149C133.797 51.5822 134.557 51.1582 136.52 51.1582C138.273 51.1582 139.244 51.5768 140.57 52.9036ZM75.3698 40.2925C66.266 42.2942 54.821 48.6633 54.821 51.7285C54.821 52.6672 57.439 55.5012 58.3064 55.5012C58.6131 55.5012 60.289 54.5201 62.0312 53.3205C76.1556 43.5959 94.6819 43.5732 109.057 53.2625C112.493 55.5783 113.999 55.6009 115.466 53.3605C116.848 51.2501 115.996 49.8319 111.616 46.9465C106.953 43.8736 101.056 41.4235 95.4766 40.24C90.5825 39.2015 80.209 39.229 75.3698 40.2925ZM136.626 82.528C138.285 84.1881 138.733 85.1113 138.732 86.8573C138.729 88.7109 138.168 89.7057 135.331 92.8891C130.038 98.8277 127.064 99.4529 123.616 95.3523C120.862 92.0764 121.651 89.849 127.585 84.1505C132.22 79.6993 133.56 79.4593 136.626 82.528ZM77.6424 60.5668C71.169 62.3881 66.1568 65.8814 66.1568 68.5721C66.1568 72.0511 69.0456 72.5754 73.2697 69.8626C76.3566 67.8801 81.8969 66.2498 85.547 66.2498C89.1971 66.2498 94.7374 67.8801 97.8243 69.8626C101.192 72.0254 103.382 72.1353 104.645 70.2047C106.459 67.4352 103.738 64.5802 96.4622 61.6178C91.7423 59.6956 82.5621 59.1832 77.6424 60.5668ZM134.684 104.969C137.021 106.221 138.695 108.693 138.715 110.92C138.731 112.695 138.157 113.697 135.328 116.825C129.999 122.718 127.053 123.326 123.616 119.238C120.862 115.962 121.651 113.735 127.585 108.036C131.56 104.219 132.514 103.807 134.684 104.969ZM136.346 130.349C138.34 132.153 138.734 132.885 138.734 134.794C138.734 136.743 138.238 137.615 135.357 140.731C129.83 146.705 127.287 147.279 123.825 143.334C120.878 139.974 121.557 137.755 127.204 132.291C132.215 127.441 132.955 127.283 136.346 130.349Z" fill="#DDF247" stroke="#111111" stroke-width="2" mask="url(#path-1-inside-1_115_6854)"/>
<path d="M66.6589 101.845C66.2506 101.845 65.8677 101.759 65.5104 101.588C65.1701 101.398 65 101.123 65 100.763V84.057C65 83.6961 65.1701 83.4297 65.5104 83.2578C65.8677 83.0859 66.2506 83 66.6589 83C67.0672 83 67.399 83.043 67.6542 83.1289C67.9265 83.2148 68.1732 83.3867 68.3944 83.6445C68.6326 83.8851 68.8793 84.2632 69.1345 84.7788L74.0601 94.3948V84.057C74.0601 83.6789 74.2303 83.4125 74.5705 83.2578C74.9278 83.0859 75.3107 83 75.719 83C76.1444 83 76.5272 83.0859 76.8675 83.2578C77.2078 83.4125 77.3779 83.6789 77.3779 84.057V100.763C77.3779 101.123 77.2078 101.398 76.8675 101.588C76.5272 101.759 76.1444 101.845 75.719 101.845C75.3277 101.845 74.9619 101.768 74.6216 101.613C74.2983 101.459 74.0346 101.184 73.8304 100.788L68.3178 90.4247V100.763C68.3178 101.123 68.1476 101.398 67.8074 101.588C67.4671 101.759 67.0843 101.845 66.6589 101.845Z" fill="#DDF247"/>
<path d="M82.6467 101.845C82.2383 101.845 81.8555 101.759 81.4982 101.588C81.1579 101.398 80.9878 101.132 80.9878 100.788V84.0828C80.9878 83.7218 81.1409 83.4554 81.4472 83.2836C81.7534 83.0945 82.0852 83 82.4425 83H91.3495C91.7238 83 91.9875 83.1547 92.1407 83.464C92.3108 83.7734 92.3959 84.1 92.3959 84.4437C92.3959 84.8562 92.3023 85.2085 92.1151 85.5007C91.945 85.7929 91.6898 85.9389 91.3495 85.9389H84.3056V91.095H88.2104C88.5506 91.095 88.8059 91.2325 88.976 91.5075C89.1632 91.7653 89.2567 92.0746 89.2567 92.4355C89.2567 92.7277 89.1717 93.0199 89.0015 93.3121C88.8484 93.5871 88.5847 93.7246 88.2104 93.7246H84.3056V100.788C84.3056 101.132 84.1354 101.398 83.7951 101.588C83.4549 101.759 83.072 101.845 82.6467 101.845Z" fill="#DDF247"/>
<path d="M99.9004 102C98.8455 102 97.8672 101.811 96.9654 101.433C96.0636 101.038 95.3405 100.41 94.7961 99.5509C94.2686 98.6744 94.0049 97.5142 94.0049 96.0706V88.9294C94.0049 87.4858 94.2686 86.3342 94.7961 85.4749C95.3405 84.5984 96.0636 83.9711 96.9654 83.5929C97.8672 83.1976 98.854 83 99.9259 83C101.117 83 102.163 83.2062 103.065 83.6187C103.984 84.014 104.698 84.5726 105.209 85.2944C105.736 86.0163 106 86.8842 106 87.8982C106 88.5685 105.864 89.0154 105.592 89.2388C105.319 89.445 104.903 89.5482 104.341 89.5482C103.882 89.5482 103.49 89.4708 103.167 89.3161C102.861 89.1443 102.699 88.8693 102.682 88.4912C102.682 88.2849 102.648 88.0443 102.58 87.7693C102.529 87.4772 102.418 87.1936 102.248 86.9186C102.078 86.6436 101.814 86.4116 101.457 86.2225C101.117 86.0335 100.64 85.9389 100.028 85.9389C99.1603 85.9389 98.4967 86.1881 98.0373 86.6866C97.5779 87.1678 97.3482 87.9154 97.3482 88.9294V96.0706C97.3482 97.1018 97.5779 97.858 98.0373 98.3392C98.5137 98.8204 99.1943 99.0611 100.079 99.0611C100.658 99.0611 101.117 98.9665 101.457 98.7775C101.797 98.5884 102.044 98.3564 102.197 98.0814C102.367 97.7892 102.478 97.4885 102.529 97.1791C102.597 96.8697 102.648 96.5776 102.682 96.3026C102.716 95.8901 102.886 95.6151 103.193 95.4776C103.499 95.3229 103.873 95.2456 104.316 95.2456C104.894 95.2456 105.319 95.3573 105.592 95.5807C105.864 95.8042 106 96.2424 106 96.8955C106 97.9267 105.736 98.829 105.209 99.6024C104.698 100.376 103.984 100.969 103.065 101.381C102.146 101.794 101.091 102 99.9004 102Z" fill="#DDF247"/>
<path d="M67.356 120.608C67.116 120.608 66.894 120.554 66.69 120.446C66.498 120.338 66.402 120.182 66.402 119.978V109.196H63.612C63.42 109.196 63.27 109.106 63.162 108.926C63.054 108.746 63 108.542 63 108.314C63 108.098 63.048 107.9 63.144 107.72C63.24 107.54 63.396 107.45 63.612 107.45H71.082C71.31 107.45 71.472 107.54 71.568 107.72C71.664 107.9 71.712 108.092 71.712 108.296C71.712 108.536 71.658 108.746 71.55 108.926C71.454 109.106 71.298 109.196 71.082 109.196H68.31V119.978C68.31 120.182 68.208 120.338 68.004 120.446C67.812 120.554 67.596 120.608 67.356 120.608Z" fill="#DDF247"/>
<path d="M74.9711 120.752C74.3231 120.752 73.7171 120.584 73.1531 120.248C72.5891 119.912 72.1331 119.474 71.7851 118.934C71.4491 118.382 71.2811 117.794 71.2811 117.17V115.514C71.2811 114.878 71.4431 114.29 71.7671 113.75C72.1031 113.21 72.5531 112.778 73.1171 112.454C73.6931 112.13 74.3171 111.968 74.9891 111.968C75.6611 111.968 76.2791 112.13 76.8431 112.454C77.4071 112.766 77.8571 113.192 78.1931 113.732C78.5411 114.26 78.7151 114.854 78.7151 115.514V117.17C78.7151 117.782 78.5411 118.364 78.1931 118.916C77.8571 119.468 77.4011 119.912 76.8251 120.248C76.2611 120.584 75.6431 120.752 74.9711 120.752ZM74.9891 119.078C75.3251 119.078 75.6311 118.988 75.9071 118.808C76.1831 118.628 76.4051 118.394 76.5731 118.106C76.7411 117.806 76.8251 117.494 76.8251 117.17V115.514C76.8251 115.202 76.7411 114.902 76.5731 114.614C76.4051 114.326 76.1831 114.092 75.9071 113.912C75.6311 113.732 75.3251 113.642 74.9891 113.642C74.6411 113.642 74.3291 113.732 74.0531 113.912C73.7891 114.092 73.5731 114.326 73.4051 114.614C73.2491 114.902 73.1711 115.202 73.1711 115.514V117.17C73.1711 117.494 73.2491 117.806 73.4051 118.106C73.5731 118.394 73.7951 118.628 74.0711 118.808C74.3471 118.988 74.6531 119.078 74.9891 119.078Z" fill="#DDF247"/>
<path d="M84.355 120.752C83.683 120.752 83.059 120.59 82.483 120.266C81.919 119.93 81.469 119.492 81.133 118.952C80.797 118.4 80.629 117.818 80.629 117.206V112.706C80.629 112.55 80.719 112.406 80.899 112.274C81.091 112.142 81.319 112.076 81.583 112.076C81.835 112.076 82.051 112.142 82.231 112.274C82.423 112.406 82.519 112.55 82.519 112.706V117.206C82.519 117.518 82.597 117.818 82.753 118.106C82.921 118.394 83.143 118.628 83.419 118.808C83.707 118.988 84.019 119.078 84.355 119.078C84.691 119.078 84.997 118.988 85.273 118.808C85.549 118.628 85.765 118.394 85.921 118.106C86.089 117.818 86.173 117.518 86.173 117.206V112.688C86.173 112.52 86.269 112.376 86.461 112.256C86.665 112.136 86.887 112.076 87.127 112.076C87.403 112.076 87.625 112.136 87.793 112.256C87.973 112.376 88.063 112.52 88.063 112.688V117.206C88.063 117.842 87.895 118.43 87.559 118.97C87.223 119.51 86.773 119.942 86.209 120.266C85.645 120.59 85.027 120.752 84.355 120.752Z" fill="#DDF247"/>
<path d="M93.7635 120.752C92.8995 120.752 92.1855 120.596 91.6215 120.284C91.0695 119.972 90.6615 119.546 90.3975 119.006C90.1335 118.466 90.0015 117.854 90.0015 117.17V115.55C90.0015 114.878 90.1335 114.272 90.3975 113.732C90.6615 113.18 91.0695 112.748 91.6215 112.436C92.1735 112.124 92.8755 111.968 93.7275 111.968C94.2795 111.968 94.7595 112.034 95.1675 112.166C95.5875 112.298 95.9115 112.466 96.1395 112.67C96.3795 112.862 96.4995 113.066 96.4995 113.282C96.4995 113.39 96.4635 113.522 96.3915 113.678C96.3315 113.822 96.2415 113.948 96.1215 114.056C96.0135 114.152 95.8815 114.2 95.7255 114.2C95.6055 114.2 95.4735 114.152 95.3295 114.056C95.1975 113.96 95.0175 113.87 94.7895 113.786C94.5615 113.69 94.2555 113.642 93.8715 113.642C93.1995 113.642 92.7015 113.81 92.3775 114.146C92.0535 114.482 91.8915 114.95 91.8915 115.55V117.17C91.8915 117.77 92.0535 118.238 92.3775 118.574C92.7015 118.91 93.2055 119.078 93.8895 119.078C94.2855 119.078 94.5975 119.03 94.8255 118.934C95.0535 118.826 95.2335 118.724 95.3655 118.628C95.5095 118.532 95.6475 118.484 95.7795 118.484C95.9475 118.484 96.0915 118.532 96.2115 118.628C96.3435 118.724 96.4395 118.844 96.4995 118.988C96.5715 119.132 96.6075 119.264 96.6075 119.384C96.6075 119.588 96.4815 119.798 96.2295 120.014C95.9895 120.23 95.6535 120.41 95.2215 120.554C94.8015 120.686 94.3155 120.752 93.7635 120.752Z" fill="#DDF247"/>
<path d="M99.268 120.608C98.992 120.608 98.764 120.542 98.584 120.41C98.416 120.278 98.332 120.134 98.332 119.978V107.612C98.332 107.432 98.416 107.288 98.584 107.18C98.764 107.06 98.992 107 99.268 107C99.532 107 99.754 107.06 99.934 107.18C100.126 107.288 100.222 107.432 100.222 107.612V113.336C100.402 112.988 100.684 112.676 101.068 112.4C101.464 112.112 101.95 111.968 102.526 111.968C103.09 111.968 103.606 112.13 104.074 112.454C104.554 112.766 104.938 113.192 105.226 113.732C105.514 114.26 105.658 114.854 105.658 115.514V119.978C105.658 120.182 105.556 120.338 105.352 120.446C105.16 120.554 104.944 120.608 104.704 120.608C104.488 120.608 104.278 120.554 104.074 120.446C103.87 120.338 103.768 120.182 103.768 119.978V115.514C103.768 115.202 103.684 114.902 103.516 114.614C103.348 114.326 103.126 114.092 102.85 113.912C102.586 113.732 102.286 113.642 101.95 113.642C101.662 113.642 101.386 113.72 101.122 113.876C100.858 114.02 100.642 114.23 100.474 114.506C100.306 114.782 100.222 115.118 100.222 115.514V119.978C100.222 120.134 100.126 120.278 99.934 120.41C99.754 120.542 99.532 120.608 99.268 120.608Z" fill="#DDF247"/>
</g>
</svg>
