<svg width="120" height="120" viewBox="0 0 120 120" fill="none" xmlns="http://www.w3.org/2000/svg">
<path d="M3.75 114.375L19.875 108.75L7.6875 103.125L3.75 114.375Z" fill="#F7B600"/>
<path d="M50.4375 68.25L27.75 45.375L24 55.875L50.4375 68.25Z" fill="#FFDD7D"/>
<path d="M24 55.875L19.875 67.6875L70.125 91.125L72.5625 90.375L50.4375 68.25L24 55.875Z" fill="#F7B600"/>
<path d="M15.9375 79.5L53.4375 96.9375L70.125 91.125L19.875 67.6875L15.9375 79.5Z" fill="#FFDD7D"/>
<path d="M11.8125 91.3125L36.5625 102.938L53.4375 96.9375L15.9375 79.5L11.8125 91.3125Z" fill="#F7B600"/>
<path d="M11.8125 91.3125L7.6875 103.125L19.875 108.75L36.5625 102.938L11.8125 91.3125Z" fill="#FFDD7D"/>
<path d="M59.8133 58.5C72.3758 70.875 78.9383 84.75 74.4383 89.25C69.7508 93.75 55.8758 87.375 43.1258 74.8125C30.5633 62.4375 24.0008 48.5625 28.5008 44.0625C33.1883 39.5625 47.0633 46.125 59.8133 58.5Z" fill="#493816"/>
<path d="M44.062 27.1875C41.062 22.875 44.2495 21 48.3745 21.75C44.437 17.0625 46.8745 13.6875 53.062 15C54.937 15.375 52.312 18.5625 50.6245 18.5625C55.687 22.3125 52.8745 26.4375 47.437 25.5C52.312 32.0625 44.062 30.375 40.312 30.75C39.3745 35.625 44.9995 41.25 43.1245 41.25C38.9995 41.25 32.2495 25.6875 44.062 27.1875Z" fill="#42ADE2"/>
<path d="M83.4371 36.1875C80.6246 37.5 72.7496 25.125 82.4996 24.9375C76.8746 19.875 77.6246 17.4375 85.1246 17.25C76.4996 8.625 90.1871 5.625 91.4996 10.125C91.8746 11.4375 87.3746 9 85.8746 11.4375C84.1871 14.25 96.3746 21.5625 83.8121 21C88.4996 25.6875 88.6871 27.9375 81.3746 28.6875C82.3121 30.1875 85.3121 35.4375 83.4371 36.1875Z" fill="#FF8736"/>
<path d="M86.625 65.4375L89.4375 63C89.4375 63 92.0625 66.9375 93.9375 68.4375C95.4375 61.6875 95.0625 57.75 102.75 62.25C98.4375 50.625 105.562 54.9375 112.5 58.125C112.125 55.125 112.5 55.5 115.5 54.5625C118.125 64.5 111 61.5 105.375 58.3125C108.75 67.3125 105.187 66.75 98.0625 63.75C97.875 67.5 96.75 71.8125 94.5 72.1875C91.875 72.9375 86.625 65.4375 86.625 65.4375Z" fill="#ED4C5C"/>
<path d="M65.625 37.6875C62.25 42.1875 56.8125 44.625 52.875 48.5625C48.75 52.6875 46.3125 63.9375 46.3125 63.9375C46.3125 63.9375 47.8125 52.125 51.75 47.625C55.3125 43.5 60.5625 40.5 63.375 35.8125C68.25 27.1875 63.75 15.9375 57.375 9.375C58.6875 8.25 60.5625 6.75 61.5 5.625C67.6875 13.3125 72.9375 28.125 65.625 37.6875Z" fill="#C28FEF"/>
<path d="M71.4375 47.25C66.5625 50.8125 63 56.0625 59.625 60.9375C56.625 65.25 47.0625 70.6875 47.0625 70.6875C47.0625 70.6875 56.0625 64.5 58.875 60C62.25 54.375 65.625 48.5625 70.875 44.4375C81.375 36.375 96.5625 37.125 108.375 41.4375C107.625 43.125 106.313 46.6875 106.313 46.6875C106.313 46.6875 81.375 39.9375 71.4375 47.25Z" fill="#FF8736"/>
<path d="M92.25 46.3125C89.0625 50.4375 87.5625 55.5 85.125 60.1875C82.875 64.5 79.875 68.625 75.5625 70.875C70.6875 73.3125 60 72.5625 60 72.5625C60 72.5625 70.6875 72.375 75.1875 69.375C79.6875 66.375 82.125 61.125 83.8125 56.25C87.1875 46.875 91.3125 36.75 101.063 32.625C101.625 34.3125 102.938 37.875 102.938 37.875C102.938 37.875 97.5 39.375 92.25 46.3125Z" fill="#42ADE2"/>
<path d="M6.01953 26.8594L11.322 21.555L16.6264 26.8575L11.3239 32.1637L6.01953 26.8594Z" fill="#42ADE2"/>
<path d="M13.4492 43.4944L18.7498 38.1919L24.0523 43.4944L18.7498 48.7969L13.4492 43.4944Z" fill="#FF8736"/>
<path d="M26.9219 18.4163L32.2244 13.1138L37.5269 18.4163L32.2244 23.7188L26.9219 18.4163Z" fill="#ED4C5C"/>
<path d="M84.7598 81.93L90.0623 76.6256L95.3648 81.93L90.0623 87.2325L84.7598 81.93Z" fill="#C28FEF"/>
<path d="M72.9434 100.106L78.2459 94.8038L83.5502 100.108L78.2459 105.411L72.9434 100.106Z" fill="#ED4C5C"/>
<path d="M96.1484 104.263L101.451 98.9587L106.753 104.263L101.451 109.566L96.1484 104.263Z" fill="#FF8736"/>
<path d="M101.396 80.1206L106.699 74.8181L112.001 80.1206L106.699 85.425L101.396 80.1206Z" fill="#42ADE2"/>
<path d="M92.543 24.0431L97.8455 18.7388L103.15 24.0431L97.8473 29.3456L92.543 24.0431Z" fill="#42ADE2"/>
<path d="M35.707 55.86L41.0114 50.5575L46.3139 55.86L41.0114 61.1644L35.707 55.86Z" fill="#ED4C5C"/>
</svg>
