<svg width="40" height="40" viewBox="0 0 40 40" fill="none" xmlns="http://www.w3.org/2000/svg">
<circle opacity="0.1" cx="20" cy="20" r="20" fill="white"/>
<path d="M29.3679 16.8513V23.9084C29.3679 25.064 28.7489 26.137 27.7481 26.7251L21.6195 30.264C20.6187 30.8418 19.3806 30.8418 18.3695 30.264L12.2409 26.7251C11.2401 26.1473 10.6211 25.0743 10.6211 23.9084V16.8513C10.6211 15.6957 11.2401 14.6227 12.2409 14.0346L18.3695 10.4957C19.3703 9.91793 20.6084 9.91793 21.6195 10.4957L27.7481 14.0346C28.7489 14.6227 29.3679 15.6854 29.3679 16.8513Z" stroke="#818181" stroke-width="2" stroke-linecap="round" stroke-linejoin="round"/>
<path d="M20.0016 19.3508C21.3293 19.3508 22.4056 18.2744 22.4056 16.9468C22.4056 15.6191 21.3293 14.5428 20.0016 14.5428C18.6739 14.5428 17.5977 15.6191 17.5977 16.9468C17.5977 18.2744 18.6739 19.3508 20.0016 19.3508Z" stroke="#818181" stroke-width="2" stroke-linecap="round" stroke-linejoin="round"/>
<path d="M24.127 25.1918C24.127 23.3347 22.2802 21.8284 20 21.8284C17.7199 21.8284 15.873 23.3347 15.873 25.1918" stroke="#818181" stroke-width="2" stroke-linecap="round" stroke-linejoin="round"/>
</svg>
