<svg width="104" height="19" viewBox="0 0 104 19" fill="none" xmlns="http://www.w3.org/2000/svg">
<path d="M39.7217 15.8279L34.3496 3.37602H37.4626L42.1587 14.4049H40.3265L45.0938 3.37602H47.9578L42.5679 15.8279H39.7217Z" fill="white"/>
<path d="M55.3828 15.8279V13.9602L55.2049 13.551V10.2068C55.2049 9.61384 55.0211 9.15134 54.6535 8.81929C54.2977 8.48724 53.7463 8.32121 52.9991 8.32121C52.4892 8.32121 51.9852 8.40423 51.4871 8.57025C51.0009 8.72442 50.5858 8.93788 50.2419 9.21064L49.2458 7.27169C49.7676 6.90407 50.3961 6.61945 51.1314 6.41785C51.8666 6.21625 52.6137 6.11545 53.3727 6.11545C54.8314 6.11545 55.9639 6.45936 56.7703 7.14718C57.5767 7.835 57.9799 8.90823 57.9799 10.3669V15.8279H55.3828ZM52.4655 15.9703C51.7184 15.9703 51.078 15.8457 50.5443 15.5967C50.0107 15.3358 49.6015 14.986 49.3169 14.5472C49.0323 14.1084 48.89 13.6162 48.89 13.0707C48.89 12.5015 49.0264 12.0034 49.2991 11.5765C49.5838 11.1496 50.0285 10.8175 50.6333 10.5803C51.2381 10.3313 52.0267 10.2068 52.9991 10.2068H55.5429V11.8255H53.3015C52.6493 11.8255 52.1987 11.9323 51.9496 12.1457C51.7124 12.3592 51.5939 12.626 51.5939 12.9462C51.5939 13.302 51.7302 13.5866 52.003 13.8001C52.2876 14.0017 52.673 14.1025 53.1592 14.1025C53.6217 14.1025 54.0368 13.9957 54.4044 13.7823C54.7721 13.557 55.0389 13.2308 55.2049 12.8039L55.6318 14.0847C55.4302 14.7013 55.0626 15.1698 54.529 15.49C53.9953 15.8102 53.3075 15.9703 52.4655 15.9703Z" fill="white"/>
<path d="M65.9525 15.9703C65.1579 15.9703 64.4464 15.8161 63.8179 15.5078C63.2012 15.1994 62.7209 14.731 62.377 14.1025C62.0331 13.4621 61.8611 12.6497 61.8611 11.6654V6.25775H64.6361V11.2563C64.6361 12.0509 64.8022 12.6379 65.1342 13.0174C65.4781 13.385 65.9584 13.5688 66.5751 13.5688C67.002 13.5688 67.3815 13.4799 67.7135 13.302C68.0456 13.1122 68.3065 12.8276 68.4962 12.4481C68.686 12.0568 68.7808 11.5706 68.7808 10.9895V6.25775H71.5558V15.8279H68.9232V13.1953L69.4034 13.9602C69.0832 14.6243 68.6089 15.1283 67.9804 15.4722C67.3637 15.8042 66.6877 15.9703 65.9525 15.9703Z" fill="white"/>
<path d="M75.5498 15.8279V2.62891H78.3248V15.8279H75.5498Z" fill="white"/>
<path d="M86.9316 15.9703C85.805 15.9703 84.9274 15.6856 84.2989 15.1164C83.6704 14.5353 83.3561 13.6755 83.3561 12.5371V4.14093H86.1311V12.5015C86.1311 12.9047 86.2379 13.219 86.4513 13.4443C86.6648 13.6578 86.9553 13.7645 87.323 13.7645C87.7617 13.7645 88.1353 13.6459 88.4436 13.4087L89.1907 15.3654C88.9061 15.567 88.5622 15.7212 88.159 15.8279C87.7677 15.9228 87.3585 15.9703 86.9316 15.9703ZM81.8797 8.60583V6.47121H88.5148V8.60583H81.8797Z" fill="white"/>
<path d="M90.9442 15.8279L96.2985 8.44573V10.5448L91.1754 3.37602H94.4485L97.9884 8.37458L96.6187 8.39237L100.105 3.37602H103.236L98.1485 10.4203V8.35679L103.538 15.8279H100.212L96.5475 10.5448H97.8639L94.2528 15.8279H90.9442Z" fill="white"/>
<path d="M0 3.64664C0 1.63265 1.63265 0 3.64663 0V0C5.66062 0 7.29327 1.63265 7.29327 3.64664V14.8534C7.29327 16.8673 5.66062 18.5 3.64663 18.5V18.5C1.63265 18.5 0 16.8673 0 14.8534V3.64664Z" fill="url(#paint0_linear_1379_78)"/>
<rect x="22.0586" width="7.29327" height="18.5" rx="3.64663" fill="url(#paint1_linear_1379_78)"/>
<circle cx="14.674" cy="9.34195" r="3.64663" fill="url(#paint2_linear_1379_78)"/>
<defs>
<linearGradient id="paint0_linear_1379_78" x1="-2.91097e-07" y1="16.8042" x2="7.29959" y2="2.21289" gradientUnits="userSpaceOnUse">
<stop stop-color="#A7F6FA"/>
<stop offset="1" stop-color="#00B5E9"/>
</linearGradient>
<linearGradient id="paint1_linear_1379_78" x1="28.7869" y1="2.20972" x2="22.0526" y2="16.3388" gradientUnits="userSpaceOnUse">
<stop stop-color="#E667DB"/>
<stop offset="0.9999" stop-color="#FED9FD"/>
</linearGradient>
<linearGradient id="paint2_linear_1379_78" x1="16.6658" y1="6.27045" x2="12.834" y2="12.3091" gradientUnits="userSpaceOnUse">
<stop stop-color="#F288EA"/>
<stop offset="0.305555" stop-color="#FEE1FD"/>
<stop offset="0.683183" stop-color="#C1F0ED"/>
<stop offset="1" stop-color="#51D7FE"/>
</linearGradient>
</defs>
</svg>
