<svg width="120" height="120" viewBox="0 0 120 120" fill="none" xmlns="http://www.w3.org/2000/svg">
<path d="M60 7.5C73.9239 7.5 87.2774 13.0312 97.1231 22.8769C106.969 32.7226 112.5 46.0761 112.5 60C112.5 73.9239 106.969 87.2774 97.1231 97.1231C87.2774 106.969 73.9239 112.5 60 112.5C46.0761 112.5 32.7226 106.969 22.8769 97.1231C13.0312 87.2774 7.5 73.9239 7.5 60C7.5 46.0761 13.0312 32.7226 22.8769 22.8769C32.7226 13.0312 46.0761 7.5 60 7.5ZM60 46.875C60.7387 46.875 61.4701 46.7295 62.1526 46.4468C62.8351 46.1641 63.4551 45.7498 63.9775 45.2275C64.4998 44.7051 64.9141 44.0851 65.1968 43.4026C65.4795 42.7201 65.625 41.9887 65.625 41.25C65.625 40.5113 65.4795 39.7799 65.1968 39.0974C64.9141 38.4149 64.4998 37.7949 63.9775 37.2725C63.4551 36.7502 62.8351 36.3359 62.1526 36.0532C61.4701 35.7705 60.7387 35.625 60 35.625C58.5101 35.625 57.0813 36.2168 56.0278 37.2703C54.9743 38.3238 54.3825 39.7526 54.3825 41.2425C54.3825 42.7324 54.9743 44.1612 56.0278 45.2147C57.0813 46.2682 58.5101 46.86 60 46.86M63.75 56.235C63.75 55.2404 63.3549 54.2866 62.6517 53.5833C61.9484 52.8801 60.9946 52.485 60 52.485C59.0054 52.485 58.0516 52.8801 57.3484 53.5833C56.6451 54.2866 56.25 55.2404 56.25 56.235V78.735C56.25 79.7296 56.6451 80.6834 57.3484 81.3867C58.0516 82.0899 59.0054 82.485 60 82.485C60.9946 82.485 61.9484 82.0899 62.6517 81.3867C63.3549 80.6834 63.75 79.7296 63.75 78.735V56.235Z" fill="#292D32"/>
</svg>
